<svg xmlns="http://www.w3.org/2000/svg" viewBox="0 0 966.87 282.35"><defs><style>.cls-1{fill:#b81d1d;}.cls-2{fill:#e33326;}.cls-3{fill:#ff5043;}</style></defs><g id="Layer_2" data-name="Layer 2"><g id="Layer_1-2" data-name="Layer 1"><rect class="cls-1" y="41.95" width="45.53" height="240.4" rx="20"/><rect class="cls-2" x="108.04" y="6.64" width="37.17" height="155.51" rx="18.58" transform="translate(-23.95 106.4) rotate(-42)"/><rect class="cls-3" x="154.16" y="-9.68" width="33.32" height="108.56" rx="16.66" transform="matrix(0.74, -0.67, 0.67, 0.74, 14.03, 125.75)"/><rect class="cls-1" x="64.08" y="21.02" width="45.53" height="225.05" rx="20" transform="translate(-66.76 91.32) rotate(-41.6)"/><path d="M292.68,116.35l44.61,67.5V115.72q0-6.64,2.85-10a9.64,9.64,0,0,1,7.7-3.32,9.94,9.94,0,0,1,7.89,3.32q2.89,3.31,2.89,10V205.8q0,15.07-12.5,15.08a16.48,16.48,0,0,1-5.62-.9,14.32,14.32,0,0,1-4.69-2.85,27.8,27.8,0,0,1-4.06-4.57q-1.87-2.62-3.75-5.35l-43.52-66.72V207.6q0,6.56-3.05,9.92a10.81,10.81,0,0,1-15.7,0q-3-3.4-3-9.88V119.24a25.08,25.08,0,0,1,1.25-8.83,12.55,12.55,0,0,1,4.92-5.74,13.36,13.36,0,0,1,7.42-2.23,12.18,12.18,0,0,1,9.26,3.75,28.4,28.4,0,0,1,3.44,4.45Q290.81,113.39,292.68,116.35Z"/><path d="M471.48,122.28H419.21v28.13h48.13q5.31,0,7.93,2.38a8.13,8.13,0,0,1,2.62,6.29,8.4,8.4,0,0,1-2.58,6.37q-2.58,2.46-8,2.46H419.21v32.58h54.07c3.64,0,6.39.84,8.24,2.54a8.7,8.7,0,0,1,2.77,6.75,8.56,8.56,0,0,1-2.77,6.61q-2.77,2.54-8.24,2.53h-63c-5.05,0-8.69-1.11-10.9-3.36S396,209.71,396,204.71v-86.1a19.13,19.13,0,0,1,1.49-8.16,9.15,9.15,0,0,1,4.64-4.61,19.62,19.62,0,0,1,8.09-1.45h61.25c3.7,0,6.44.82,8.24,2.46a9.14,9.14,0,0,1,0,13C477.92,121.46,475.18,122.28,471.48,122.28Z"/><path d="M589.1,123.53H563.79v83.21q0,7.19-3.2,10.66a10.75,10.75,0,0,1-8.28,3.48,10.88,10.88,0,0,1-8.4-3.52q-3.24-3.51-3.24-10.62V123.53H515.35c-4,0-6.9-.87-8.82-2.61a8.88,8.88,0,0,1-2.89-6.92,8.78,8.78,0,0,1,3-7q3-2.58,8.71-2.58H589.1c4,0,7,.89,8.95,2.66a9,9,0,0,1,2.93,7,8.78,8.78,0,0,1-3,6.92Q595,123.53,589.1,123.53Z"/><path d="M665.4,201.66l-18.36-73v79.06q0,6.57-2.93,9.85a10.76,10.76,0,0,1-15.43,0q-3-3.24-3-9.89V117.13q0-7.5,3.91-10.12t10.55-2.62h7.18q6.49,0,9.42,1.17a7.91,7.91,0,0,1,4.33,4.22,65.13,65.13,0,0,1,3.21,9.93L681,182.44l16.64-62.73a65.37,65.37,0,0,1,3.2-9.93,7.93,7.93,0,0,1,4.34-4.22q2.93-1.17,9.41-1.17h7.19q6.64,0,10.55,2.62t3.9,10.12v90.62q0,6.57-2.93,9.85a10,10,0,0,1-7.85,3.28,9.8,9.8,0,0,1-7.58-3.28q-3-3.28-3-9.85V128.69l-18.35,73q-1.8,7.11-2.93,10.43a14.45,14.45,0,0,1-4.18,6q-3.06,2.75-8.44,2.74a12.34,12.34,0,0,1-11.25-6.25,25.22,25.22,0,0,1-2.46-6.06Q666.34,205.26,665.4,201.66Z"/><path d="M773,206.74V116.5q0-7,3.2-10.54a10.68,10.68,0,0,1,8.28-3.52,11.05,11.05,0,0,1,8.48,3.48q3.24,3.47,3.24,10.58v90.24q0,7.11-3.24,10.62a11,11,0,0,1-8.48,3.52,10.67,10.67,0,0,1-8.24-3.56Q772.95,213.77,773,206.74Z"/><path d="M902.53,122.28H856.82v29.3H895c3.54,0,6.18.8,7.93,2.38a8.21,8.21,0,0,1,2.61,6.37,8,8,0,0,1-2.65,6.33c-1.77,1.56-4.41,2.34-7.89,2.34H856.82v37.74q0,7.19-3.24,10.66a11.73,11.73,0,0,1-16.72,0q-3.24-3.51-3.24-10.62V118.61a19.3,19.3,0,0,1,1.48-8.16,9.2,9.2,0,0,1,4.65-4.61,19.62,19.62,0,0,1,8.09-1.45h54.69q5.54,0,8.24,2.46a9.16,9.16,0,0,1,0,13Q908.07,122.28,902.53,122.28Z"/><path d="M943.67,206.74V116.5q0-7,3.2-10.54a10.65,10.65,0,0,1,8.28-3.52,11.05,11.05,0,0,1,8.48,3.48q3.24,3.47,3.24,10.58v90.24q0,7.11-3.24,10.62a11,11,0,0,1-8.48,3.52,10.67,10.67,0,0,1-8.24-3.56Q943.67,213.77,943.67,206.74Z"/></g></g></svg>