<svg xmlns="http://www.w3.org/2000/svg" xmlns:v="https://svgstorm.com"
viewBox = "0 0 223 277"
width="223"
height="277">
<g fill="None" fill-opacity="0.0" stroke="#000000" stroke-opacity="0.00" stroke-width="0.3"><path d="
M 0.00 96.00 
C 6.15 48.17 48.24 6.14 96.00 0.00
L 0.00 0.00
L 0.00 96.00 Z"/>
</g>
<g fill="None" fill-opacity="0.0" stroke="#FDC91E" stroke-opacity="0.90" stroke-width="0.3"><path d="
M 0.00 96.00 
L 0.00 119.00
C 1.43 120.03 1.69 124.04 0.00 125.00
L 0.00 127.00
C 2.29 137.85 6.00 151.71 11.31 161.69 C 16.61 171.68 22.60 181.58 30.75 189.25 C 38.91 196.91 46.83 205.37 56.70 209.30 C 66.56 213.24 80.82 224.15 92.00 221.00
C 93.10 220.69 95.06 217.77 96.00 217.00
C 88.65 218.35 78.95 212.07 71.92 210.08 C 64.90 208.08 57.10 203.11 50.92 199.08 C 44.74 195.05 39.54 190.32 34.25 184.75 C 28.96 179.18 24.25 173.51 20.25 166.75 C 16.24 160.00 13.55 153.05 10.68 145.32 C 7.81 137.59 5.91 127.43 5.22 118.78 C 4.53 110.13 5.46 98.26 7.00 90.00 C 8.53 81.73 11.95 73.70 15.31 66.31 C 18.66 58.91 22.11 53.23 26.77 46.77 C 31.43 40.31 36.76 36.00 42.70 30.70 C 48.63 25.39 54.44 21.37 61.69 17.69 C 68.95 14.02 75.75 11.07 84.01 9.01 C 92.27 6.94 102.98 4.88 112.00 5.00 C 121.02 5.12 130.81 6.91 139.07 8.93 C 147.33 10.94 154.81 14.22 162.08 17.92 C 169.34 21.63 174.26 25.58 180.25 30.75 C 186.24 35.92 191.54 40.29 196.25 46.75 C 200.95 53.22 204.11 58.80 207.77 66.23 C 211.43 73.66 213.80 81.69 215.93 90.07 C 218.05 98.45 217.33 109.80 217.67 118.67 C 218.01 127.54 213.16 137.11 212.22 145.22 C 211.29 153.34 202.33 159.96 202.00 167.00
C 202.97 168.89 204.44 170.96 205.00 173.00
C 212.20 158.31 221.54 143.64 223.00 127.00
L 223.00 126.00
C 221.50 124.36 221.28 119.57 223.00 118.00
L 223.00 96.00
C 216.73 47.91 174.20 5.55 126.00 0.00
L 125.00 0.00
C 123.67 1.47 119.26 1.71 118.00 0.00
L 96.00 0.00
C 48.24 6.14 6.15 48.17 0.00 96.00 Z"/>
</g>
<g fill="None" fill-opacity="0.0" stroke="#FDC601" stroke-opacity="0.52" stroke-width="0.3"><path d="
M 125.00 0.00 
L 118.00 0.00
C 119.26 1.71 123.67 1.47 125.00 0.00 Z"/>
</g>
<g fill="None" fill-opacity="0.0" stroke="#000000" stroke-opacity="0.00" stroke-width="0.3"><path d="
M 223.00 96.00 
L 223.00 0.00
L 126.00 0.00
C 174.20 5.55 216.73 47.91 223.00 96.00 Z"/>
</g>
<g fill="None" fill-opacity="0.0" stroke="#FEFEFC" stroke-opacity="1.00" stroke-width="0.3"><path d="
M 96.00 217.00 
C 99.02 214.52 101.37 212.94 105.00 212.00
C 104.61 211.87 104.23 210.09 104.00 210.00
C 101.38 209.96 98.94 210.44 97.00 209.00
C 96.50 209.05 96.00 209.00 96.00 209.00
C 93.52 209.27 91.82 208.73 90.00 208.00
C 89.50 208.03 88.50 208.02 88.00 208.00
C 78.01 207.59 67.48 200.81 58.77 196.23 C 50.06 191.64 42.81 184.70 35.75 177.25 C 28.70 169.80 24.01 160.61 19.68 151.32 C 15.34 142.04 12.04 129.01 11.22 118.78 C 10.41 108.54 11.26 107.22 12.00 99.00 C 12.74 90.78 13.49 89.41 15.93 81.93 C 18.36 74.45 17.74 75.08 21.92 66.92 C 26.10 58.77 32.72 49.23 39.75 42.75 C 46.78 36.27 43.41 38.56 50.75 32.75 C 58.09 26.94 68.89 21.37 77.68 18.68 C 86.46 15.98 86.54 15.20 94.07 14.07 C 101.61 12.95 106.89 13.04 114.00 13.00 C 121.11 12.96 125.75 14.27 132.22 15.78 C 138.70 17.29 141.86 17.91 148.22 20.78 C 154.59 23.64 154.90 23.55 162.08 27.92 C 169.27 32.29 178.49 40.21 184.25 46.75 C 190.00 53.30 189.30 53.23 193.25 58.75 C 197.21 64.26 197.92 67.18 200.32 72.68 C 202.72 78.17 204.37 82.46 205.93 88.07 C 207.48 93.68 207.75 100.69 208.78 106.22 C 209.81 111.75 208.18 120.82 207.67 125.67 C 207.16 130.52 205.26 139.33 203.68 142.68 C 202.10 146.02 199.95 157.04 197.00 157.00
C 198.88 160.24 200.30 163.67 202.00 167.00
C 202.33 159.96 211.29 153.34 212.22 145.22 C 213.16 137.11 218.01 127.54 217.67 118.67 C 217.33 109.80 218.05 98.45 215.93 90.07 C 213.80 81.69 211.43 73.66 207.77 66.23 C 204.11 58.80 200.95 53.22 196.25 46.75 C 191.54 40.29 186.24 35.92 180.25 30.75 C 174.26 25.58 169.34 21.63 162.08 17.92 C 154.81 14.22 147.33 10.94 139.07 8.93 C 130.81 6.91 121.02 5.12 112.00 5.00 C 102.98 4.88 92.27 6.94 84.01 9.01 C 75.75 11.07 68.95 14.02 61.69 17.69 C 54.44 21.37 48.63 25.39 42.70 30.70 C 36.76 36.00 31.43 40.31 26.77 46.77 C 22.11 53.23 18.66 58.91 15.31 66.31 C 11.95 73.70 8.53 81.73 7.00 90.00 C 5.46 98.26 4.53 110.13 5.22 118.78 C 5.91 127.43 7.81 137.59 10.68 145.32 C 13.55 153.05 16.24 160.00 20.25 166.75 C 24.25 173.51 28.96 179.18 34.25 184.75 C 39.54 190.32 44.74 195.05 50.92 199.08 C 57.10 203.11 64.90 208.08 71.92 210.08 C 78.95 212.07 88.65 218.35 96.00 217.00 Z"/>
</g>
<g fill="None" fill-opacity="0.0" stroke="#FAD652" stroke-opacity="1.00" stroke-width="0.3"><path d="
M 88.00 208.00 
C 86.62 207.71 85.23 206.62 85.00 205.00
C 77.72 200.34 66.12 199.81 59.25 193.75 C 52.39 187.68 43.88 184.50 38.25 176.75 C 32.62 169.01 27.51 163.58 23.23 154.77 C 18.95 145.96 16.10 135.40 14.67 125.33 C 13.24 115.26 13.72 100.60 15.93 90.93 C 18.14 81.25 21.35 71.62 26.31 63.31 C 31.26 54.99 35.86 49.62 42.75 42.75 C 49.64 35.88 56.09 31.14 64.70 26.70 C 73.30 22.25 83.08 18.41 93.01 17.01 C 102.94 15.61 118.17 15.08 128.00 17.00 C 137.83 18.92 147.62 22.18 156.08 26.92 C 164.53 31.66 170.20 36.09 177.25 42.75 C 184.30 49.42 188.64 55.85 193.77 64.23 C 198.90 72.61 200.86 81.12 203.98 91.02 C 207.09 100.93 204.84 115.54 205.01 126.01 C 205.17 136.48 196.70 145.40 196.00 155.00
C 196.29 155.51 196.71 156.49 197.00 157.00
C 199.95 157.04 202.10 146.02 203.68 142.68 C 205.26 139.33 207.16 130.52 207.67 125.67 C 208.18 120.82 209.81 111.75 208.78 106.22 C 207.75 100.69 207.48 93.68 205.93 88.07 C 204.37 82.46 202.72 78.17 200.32 72.68 C 197.92 67.18 197.21 64.26 193.25 58.75 C 189.30 53.23 190.00 53.30 184.25 46.75 C 178.49 40.21 169.27 32.29 162.08 27.92 C 154.90 23.55 154.59 23.64 148.22 20.78 C 141.86 17.91 138.70 17.29 132.22 15.78 C 125.75 14.27 121.11 12.96 114.00 13.00 C 106.89 13.04 101.61 12.95 94.07 14.07 C 86.54 15.20 86.46 15.98 77.68 18.68 C 68.89 21.37 58.09 26.94 50.75 32.75 C 43.41 38.56 46.78 36.27 39.75 42.75 C 32.72 49.23 26.10 58.77 21.92 66.92 C 17.74 75.08 18.36 74.45 15.93 81.93 C 13.49 89.41 12.74 90.78 12.00 99.00 C 11.26 107.22 10.41 108.54 11.22 118.78 C 12.04 129.01 15.34 142.04 19.68 151.32 C 24.01 160.61 28.70 169.80 35.75 177.25 C 42.81 184.70 50.06 191.64 58.77 196.23 C 67.48 200.81 78.01 207.59 88.00 208.00 Z"/>
</g>
<g fill="None" fill-opacity="0.0" stroke="#FDFDFC" stroke-opacity="1.00" stroke-width="0.3"><path d="
M 85.00 205.00 
C 84.93 204.51 85.05 203.50 85.00 203.00
C 84.55 198.31 86.68 199.39 88.00 197.00
C 88.61 195.39 89.52 192.59 90.00 191.00
C 90.03 190.50 90.03 189.50 90.00 189.00
C 89.89 186.94 90.76 185.36 91.00 184.00
C 90.89 181.76 91.42 180.61 92.00 179.00
C 92.00 178.50 92.11 177.48 92.00 177.00
C 88.88 173.10 85.82 169.27 85.00 164.00
C 77.98 167.42 73.60 176.46 65.00 177.00
C 64.51 177.08 64.00 177.00 64.00 177.00
C 54.15 181.30 36.28 179.12 36.00 165.00
C 35.99 164.50 36.00 164.00 36.00 164.00
C 33.35 160.42 35.62 153.57 36.00 150.00
C 36.00 148.33 36.00 146.67 36.00 145.00
C 36.00 142.01 36.49 139.32 37.00 137.00
C 37.00 136.00 37.02 135.00 37.00 134.00
C 36.96 131.69 36.61 129.63 38.00 128.00
C 38.00 127.50 38.00 127.00 38.00 127.00
C 37.27 120.23 40.52 112.46 42.00 106.00
C 42.17 105.26 41.79 104.11 43.00 104.00
C 44.47 100.25 43.94 95.63 46.00 92.00
C 48.74 92.21 54.11 97.52 55.00 93.00
C 54.71 89.81 55.77 86.41 56.00 84.00
C 55.78 81.53 55.70 78.46 56.00 76.00
C 56.09 75.25 55.84 74.11 57.00 74.00
C 55.68 59.40 64.62 44.87 72.00 34.00
C 78.00 34.00 84.00 34.00 90.00 34.00
C 94.79 33.46 96.27 30.77 100.00 28.00
C 106.68 23.03 117.12 25.87 124.67 24.67 C 132.22 23.47 140.83 23.70 145.75 30.25 C 150.67 36.80 152.58 41.53 153.93 50.07 C 155.27 58.62 158.06 60.28 165.75 66.25 C 173.44 72.21 157.57 77.49 164.92 85.08 C 172.27 92.67 154.24 97.08 154.00 101.00
C 155.71 101.71 157.65 103.85 159.00 105.00
C 162.54 108.03 166.24 111.29 169.00 115.00
C 178.33 127.54 188.39 141.62 196.00 155.00
C 196.70 145.40 205.17 136.48 205.01 126.01 C 204.84 115.54 207.09 100.93 203.98 91.02 C 200.86 81.12 198.90 72.61 193.77 64.23 C 188.64 55.85 184.30 49.42 177.25 42.75 C 170.20 36.09 164.53 31.66 156.08 26.92 C 147.62 22.18 137.83 18.92 128.00 17.00 C 118.17 15.08 102.94 15.61 93.01 17.01 C 83.08 18.41 73.30 22.25 64.70 26.70 C 56.09 31.14 49.64 35.88 42.75 42.75 C 35.86 49.62 31.26 54.99 26.31 63.31 C 21.35 71.62 18.14 81.25 15.93 90.93 C 13.72 100.60 13.24 115.26 14.67 125.33 C 16.10 135.40 18.95 145.96 23.23 154.77 C 27.51 163.58 32.62 169.01 38.25 176.75 C 43.88 184.50 52.39 187.68 59.25 193.75 C 66.12 199.81 77.72 200.34 85.00 205.00 Z"/>
</g>
<g fill="None" fill-opacity="0.0" stroke="#000000" stroke-opacity="1.00" stroke-width="0.3"><path d="
M 100.00 28.00 
C 97.54 30.14 95.73 33.09 93.00 35.00
C 92.77 35.16 93.00 36.00 93.00 36.00
C 92.24 37.45 92.49 38.54 92.00 40.00
C 91.74 40.78 91.23 41.19 91.00 42.00
C 90.30 44.41 89.99 46.61 89.00 49.00
C 88.82 49.43 89.00 50.00 89.00 50.00
C 89.25 50.25 90.00 50.00 90.00 50.00
C 92.96 49.94 93.74 43.90 95.00 41.00
C 104.60 48.36 116.95 53.72 129.00 58.00
C 129.85 61.68 130.38 66.10 134.00 68.00
C 143.72 53.87 146.53 77.68 136.00 80.00
C 135.20 80.09 133.72 79.67 133.00 80.00
C 132.16 82.52 134.59 94.43 135.00 99.00
C 135.19 98.76 136.00 99.00 136.00 99.00
C 135.79 97.70 136.16 96.31 136.00 95.00
C 143.37 93.46 148.50 98.46 154.00 102.00
C 153.81 101.59 154.00 101.00 154.00 101.00
C 154.24 97.08 172.27 92.67 164.92 85.08 C 157.57 77.49 173.44 72.21 165.75 66.25 C 158.06 60.28 155.27 58.62 153.93 50.07 C 152.58 41.53 150.67 36.80 145.75 30.25 C 140.83 23.70 132.22 23.47 124.67 24.67 C 117.12 25.87 106.68 23.03 100.00 28.00 Z"/>
</g>
<g fill="None" fill-opacity="0.0" stroke="#A3A3A3" stroke-opacity="1.00" stroke-width="0.3"><path d="
M 90.00 34.00 
C 90.37 34.08 92.30 34.78 93.00 35.00
C 95.73 33.09 97.54 30.14 100.00 28.00
C 96.27 30.77 94.79 33.46 90.00 34.00 Z"/>
</g>
<g fill="None" fill-opacity="0.0" stroke="#342C2A" stroke-opacity="1.00" stroke-width="0.3"><path d="
M 57.00 74.00 
C 57.50 73.95 58.00 74.00 58.00 74.00
C 58.80 63.93 61.08 50.41 67.00 42.00
C 67.97 40.63 68.96 38.67 71.00 39.00
C 71.00 43.00 71.00 47.00 71.00 51.00
C 71.13 50.78 72.00 51.00 72.00 51.00
C 72.00 46.16 69.62 36.63 75.03 35.03 C 80.44 33.42 87.71 36.83 93.00 36.00
C 93.00 36.00 92.77 35.16 93.00 35.00
C 92.30 34.78 90.37 34.08 90.00 34.00
C 84.00 34.00 78.00 34.00 72.00 34.00
C 64.62 44.87 55.68 59.40 57.00 74.00 Z"/>
</g>
<g fill="None" fill-opacity="0.0" stroke="#ADADAD" stroke-opacity="1.00" stroke-width="0.3"><path d="
M 72.00 51.00 
C 72.00 63.49 73.12 76.57 72.00 89.00
C 71.71 91.74 72.50 94.80 76.00 94.00
C 72.99 85.90 73.25 72.92 74.00 64.00 C 74.75 55.08 69.09 37.41 81.00 38.00
C 82.04 42.65 88.70 41.32 92.00 40.00
C 92.49 38.54 92.24 37.45 93.00 36.00
C 87.71 36.83 80.44 33.42 75.03 35.03 C 69.62 36.63 72.00 46.16 72.00 51.00 Z"/>
</g>
<g fill="None" fill-opacity="0.0" stroke="#272120" stroke-opacity="1.00" stroke-width="0.3"><path d="
M 72.00 89.00 
C 71.99 89.05 71.00 89.00 71.00 89.00
C 71.00 89.50 71.01 90.50 71.00 91.00
C 70.93 97.72 83.51 95.25 87.23 90.23 C 90.95 85.21 98.79 90.92 104.00 92.00
C 103.77 91.84 104.00 91.00 104.00 91.00
C 93.61 89.24 93.14 79.03 88.00 75.00
C 88.77 77.25 89.16 79.71 90.00 82.00
C 92.13 87.81 87.50 87.02 81.30 91.30 C 75.10 95.59 73.79 85.34 75.00 79.00 C 76.21 72.66 73.86 63.27 75.00 57.00 C 76.14 50.73 71.19 38.94 80.00 39.00
C 81.08 44.02 87.26 41.32 91.00 42.00
C 91.23 41.19 91.74 40.78 92.00 40.00
C 88.70 41.32 82.04 42.65 81.00 38.00
C 69.09 37.41 74.75 55.08 74.00 64.00 C 73.25 72.92 72.99 85.90 76.00 94.00
C 72.50 94.80 71.71 91.74 72.00 89.00 Z"/>
</g>
<g fill="None" fill-opacity="0.0" stroke="#AF6557" stroke-opacity="1.00" stroke-width="0.3"><path d="
M 67.00 42.00 
C 67.74 41.22 69.10 40.54 70.00 40.00
C 70.00 45.00 70.00 50.00 70.00 55.00
C 70.00 54.96 71.00 55.00 71.00 55.00
C 71.00 53.67 71.00 52.33 71.00 51.00
C 71.00 47.00 71.00 43.00 71.00 39.00
C 68.96 38.67 67.97 40.63 67.00 42.00 Z"/>
</g>
<g fill="None" fill-opacity="0.0" stroke="#F8F7F7" stroke-opacity="1.00" stroke-width="0.3"><path d="
M 90.00 82.00 
C 87.61 80.96 78.37 85.59 79.08 78.92 C 79.79 72.24 74.72 55.62 87.00 59.00
C 87.00 58.15 86.57 55.71 87.00 55.00
C 73.51 55.51 77.38 47.95 89.00 49.00
C 89.99 46.61 90.30 44.41 91.00 42.00
C 87.26 41.32 81.08 44.02 80.00 39.00
C 71.19 38.94 76.14 50.73 75.00 57.00 C 73.86 63.27 76.21 72.66 75.00 79.00 C 73.79 85.34 75.10 95.59 81.30 91.30 C 87.50 87.02 92.13 87.81 90.00 82.00 Z"/>
</g>
<g fill="None" fill-opacity="0.0" stroke="#FC927E" stroke-opacity="1.00" stroke-width="0.3"><path d="
M 67.00 42.00 
C 61.08 50.41 58.80 63.93 58.00 74.00
C 57.89 75.36 57.18 76.19 57.00 77.00
C 57.40 79.16 57.00 81.80 57.00 84.00
C 57.00 86.35 55.80 91.63 56.00 93.00
C 56.14 99.34 69.70 100.73 75.08 103.92 C 80.45 107.12 91.52 110.71 98.00 112.00
C 98.94 104.21 108.73 100.84 110.00 93.00
C 108.12 92.53 105.07 94.06 104.00 92.00
C 98.79 90.92 90.95 85.21 87.23 90.23 C 83.51 95.25 70.93 97.72 71.00 91.00
C 67.30 81.58 70.00 65.59 70.00 55.00
C 70.00 50.00 70.00 45.00 70.00 40.00
C 69.10 40.54 67.74 41.22 67.00 42.00 Z"/>
</g>
<g fill="None" fill-opacity="0.0" stroke="#F8917D" stroke-opacity="1.00" stroke-width="0.3"><path d="
M 90.00 50.00 
C 89.64 51.64 88.95 53.85 88.00 55.00
C 88.54 61.02 87.52 67.77 87.00 73.00
C 87.16 74.33 87.71 74.16 88.00 75.00
C 93.14 79.03 93.61 89.24 104.00 91.00
C 113.48 92.60 121.93 92.37 129.00 84.00
C 127.06 89.19 122.07 94.71 117.00 97.00
C 116.24 102.41 117.50 114.92 124.67 112.67 C 131.85 110.42 132.15 103.89 135.00 99.00
C 134.59 94.43 132.16 82.52 133.00 80.00
C 133.30 79.10 132.76 77.92 133.00 77.00
C 135.21 76.29 136.46 77.90 136.00 80.00
C 146.53 77.68 143.72 53.87 134.00 68.00
C 130.38 66.10 129.85 61.68 129.00 58.00
C 116.95 53.72 104.60 48.36 95.00 41.00
C 93.74 43.90 92.96 49.94 90.00 50.00
M 98.00 54.00 
C 86.74 56.56 96.85 44.85 98.00 54.00
M 114.00 55.00 
C 111.50 57.08 105.89 56.28 107.00 52.00
C 109.72 51.61 113.00 52.05 114.00 55.00
M 96.00 58.00 
C 99.72 59.29 97.24 64.73 93.33 62.67 C 89.41 60.60 92.15 56.67 96.00 58.00
M 114.00 60.00 
C 113.65 63.72 109.52 65.84 106.00 65.00
C 104.73 59.10 109.75 58.28 114.00 60.00
M 100.00 62.00 
C 96.87 67.31 98.07 74.38 106.00 72.00
C 98.74 77.67 93.34 66.19 100.00 62.00
M 141.00 68.00 
C 141.24 71.36 138.80 75.30 136.00 77.00
C 136.57 73.77 139.85 71.48 140.00 68.00
C 138.72 68.66 137.57 69.30 136.00 69.00
C 136.43 66.91 140.07 66.03 141.00 68.00
M 108.00 76.00 
C 107.16 78.35 101.01 79.51 101.00 76.00
C 103.44 77.19 106.36 73.39 108.00 76.00 Z"/>
</g>
<g fill="None" fill-opacity="0.0" stroke="#FD3432" stroke-opacity="1.00" stroke-width="0.3"><path d="
M 87.00 55.00 
C 87.01 53.19 88.10 51.25 89.00 50.00
C 89.00 50.00 88.82 49.43 89.00 49.00
C 77.38 47.95 73.51 55.51 87.00 55.00 Z"/>
</g>
<g fill="None" fill-opacity="0.0" stroke="#632822" stroke-opacity="1.00" stroke-width="0.3"><path d="
M 87.00 55.00 
C 87.13 54.78 88.00 55.00 88.00 55.00
C 88.95 53.85 89.64 51.64 90.00 50.00
C 90.00 50.00 89.25 50.25 89.00 50.00
C 88.10 51.25 87.01 53.19 87.00 55.00 Z"/>
</g>
<g fill="None" fill-opacity="0.0" stroke="#080403" stroke-opacity="1.00" stroke-width="0.3"><path d="
M 98.00 54.00 
C 96.85 44.85 86.74 56.56 98.00 54.00 Z"/>
</g>
<g fill="None" fill-opacity="0.0" stroke="#555353" stroke-opacity="1.00" stroke-width="0.3"><path d="
M 71.00 55.00 
C 71.00 66.33 71.00 77.67 71.00 89.00
C 71.00 89.00 71.99 89.05 72.00 89.00
C 73.12 76.57 72.00 63.49 72.00 51.00
C 72.00 51.00 71.13 50.78 71.00 51.00
C 71.00 52.33 71.00 53.67 71.00 55.00 Z"/>
</g>
<g fill="None" fill-opacity="0.0" stroke="#130907" stroke-opacity="1.00" stroke-width="0.3"><path d="
M 114.00 55.00 
C 113.00 52.05 109.72 51.61 107.00 52.00
C 105.89 56.28 111.50 57.08 114.00 55.00 Z"/>
</g>
<g fill="None" fill-opacity="0.0" stroke="#864E43" stroke-opacity="1.00" stroke-width="0.3"><path d="
M 71.00 91.00 
C 71.01 90.50 71.00 89.50 71.00 89.00
C 71.00 77.67 71.00 66.33 71.00 55.00
C 71.00 55.00 70.00 54.96 70.00 55.00
C 70.00 65.59 67.30 81.58 71.00 91.00 Z"/>
</g>
<g fill="None" fill-opacity="0.0" stroke="#140E0D" stroke-opacity="1.00" stroke-width="0.3"><path d="
M 87.00 59.00 
C 87.00 63.55 86.44 68.49 87.00 73.00
C 87.52 67.77 88.54 61.02 88.00 55.00
C 88.00 55.00 87.13 54.78 87.00 55.00
C 86.57 55.71 87.00 58.15 87.00 59.00 Z"/>
</g>
<g fill="None" fill-opacity="0.0" stroke="#0A0403" stroke-opacity="1.00" stroke-width="0.3"><path d="
M 96.00 58.00 
C 92.15 56.67 89.41 60.60 93.33 62.67 C 97.24 64.73 99.72 59.29 96.00 58.00 Z"/>
</g>
<g fill="None" fill-opacity="0.0" stroke="#FEACAC" stroke-opacity="1.00" stroke-width="0.3"><path d="
M 90.00 82.00 
C 89.16 79.71 88.77 77.25 88.00 75.00
C 87.71 74.16 87.16 74.33 87.00 73.00
C 86.44 68.49 87.00 63.55 87.00 59.00
C 74.72 55.62 79.79 72.24 79.08 78.92 C 78.37 85.59 87.61 80.96 90.00 82.00 Z"/>
</g>
<g fill="None" fill-opacity="0.0" stroke="#080302" stroke-opacity="1.00" stroke-width="0.3"><path d="
M 114.00 60.00 
C 109.75 58.28 104.73 59.10 106.00 65.00
C 109.52 65.84 113.65 63.72 114.00 60.00 Z"/>
</g>
<g fill="None" fill-opacity="0.0" stroke="#472A24" stroke-opacity="1.00" stroke-width="0.3"><path d="
M 100.00 62.00 
C 93.34 66.19 98.74 77.67 106.00 72.00
C 98.07 74.38 96.87 67.31 100.00 62.00 Z"/>
</g>
<g fill="None" fill-opacity="0.0" stroke="#7D493F" stroke-opacity="1.00" stroke-width="0.3"><path d="
M 140.00 68.00 
C 140.40 67.80 141.00 68.00 141.00 68.00
C 140.07 66.03 136.43 66.91 136.00 69.00
C 137.57 69.30 138.72 68.66 140.00 68.00 Z"/>
</g>
<g fill="None" fill-opacity="0.0" stroke="#4B2C26" stroke-opacity="1.00" stroke-width="0.3"><path d="
M 141.00 68.00 
C 141.00 68.00 140.40 67.80 140.00 68.00
C 139.85 71.48 136.57 73.77 136.00 77.00
C 138.80 75.30 141.24 71.36 141.00 68.00 Z"/>
</g>
<g fill="None" fill-opacity="0.0" stroke="#88635C" stroke-opacity="1.00" stroke-width="0.3"><path d="
M 56.00 76.00 
C 56.11 76.26 56.93 76.65 57.00 77.00
C 57.18 76.19 57.89 75.36 58.00 74.00
C 58.00 74.00 57.50 73.95 57.00 74.00
C 55.84 74.11 56.09 75.25 56.00 76.00 Z"/>
</g>
<g fill="None" fill-opacity="0.0" stroke="#261612" stroke-opacity="1.00" stroke-width="0.3"><path d="
M 108.00 76.00 
C 106.36 73.39 103.44 77.19 101.00 76.00
C 101.01 79.51 107.16 78.35 108.00 76.00 Z"/>
</g>
<g fill="None" fill-opacity="0.0" stroke="#241D1C" stroke-opacity="1.00" stroke-width="0.3"><path d="
M 56.00 84.00 
C 56.00 83.96 57.00 84.00 57.00 84.00
C 57.00 81.80 57.40 79.16 57.00 77.00
C 56.93 76.65 56.11 76.26 56.00 76.00
C 55.70 78.46 55.78 81.53 56.00 84.00 Z"/>
</g>
<g fill="None" fill-opacity="0.0" stroke="#FDF7F6" stroke-opacity="1.00" stroke-width="0.3"><path d="
M 133.00 80.00 
C 133.72 79.67 135.20 80.09 136.00 80.00
C 136.46 77.90 135.21 76.29 133.00 77.00
C 132.76 77.92 133.30 79.10 133.00 80.00 Z"/>
</g>
<g fill="None" fill-opacity="0.0" stroke="#8C8B8B" stroke-opacity="1.00" stroke-width="0.3"><path d="
M 55.00 93.00 
C 55.05 92.85 56.00 93.00 56.00 93.00
C 56.27 90.02 55.73 86.98 56.00 84.00
C 55.77 86.41 54.71 89.81 55.00 93.00 Z"/>
</g>
<g fill="None" fill-opacity="0.0" stroke="#72443C" stroke-opacity="1.00" stroke-width="0.3"><path d="
M 56.00 93.00 
C 55.80 91.63 57.00 86.35 57.00 84.00
C 57.00 84.00 56.00 83.96 56.00 84.00
C 55.73 86.98 56.27 90.02 56.00 93.00 Z"/>
</g>
<g fill="None" fill-opacity="0.0" stroke="#301B18" stroke-opacity="1.00" stroke-width="0.3"><path d="
M 104.00 91.00 
C 104.00 91.00 103.77 91.84 104.00 92.00
C 105.07 94.06 108.12 92.53 110.00 93.00
C 108.73 100.84 98.94 104.21 98.00 112.00
C 91.52 110.71 80.45 107.12 75.08 103.92 C 69.70 100.73 56.14 99.34 56.00 93.00
C 56.00 93.00 55.05 92.85 55.00 93.00
C 54.11 97.52 48.74 92.21 46.00 92.00
C 43.94 95.63 44.47 100.25 43.00 104.00
C 43.50 103.95 44.00 104.00 44.00 104.00
C 45.01 100.80 45.86 97.47 46.00 94.00
C 63.81 99.08 80.26 108.66 98.00 114.00
C 99.90 106.19 107.65 100.21 115.00 98.00
C 114.82 103.80 117.09 116.64 125.00 114.00 C 132.91 111.36 133.29 105.05 136.00 99.00
C 136.00 99.00 135.19 98.76 135.00 99.00
C 132.15 103.89 131.85 110.42 124.67 112.67 C 117.50 114.92 116.24 102.41 117.00 97.00
C 122.07 94.71 127.06 89.19 129.00 84.00
C 121.93 92.37 113.48 92.60 104.00 91.00 Z"/>
</g>
<g fill="None" fill-opacity="0.0" stroke="#D30201" stroke-opacity="1.00" stroke-width="0.3"><path d="
M 44.00 104.00 
C 57.56 112.55 76.77 114.43 88.00 125.00
C 72.90 118.85 58.05 112.28 43.00 106.00
C 43.38 111.72 40.26 122.22 38.00 127.00
C 38.00 127.00 38.00 127.50 38.00 128.00
C 38.00 130.00 38.04 132.00 38.00 134.00
C 37.95 136.13 37.16 138.57 37.00 140.00
C 37.00 141.67 37.00 143.33 37.00 145.00
C 37.00 148.10 36.23 151.64 36.00 154.00
C 36.00 157.33 36.00 160.67 36.00 164.00
C 36.00 164.00 35.99 164.50 36.00 165.00
C 38.44 169.66 39.78 173.99 45.23 176.77 C 50.68 179.55 58.27 176.61 64.00 177.00
C 64.00 177.00 64.51 177.08 65.00 177.00
C 70.94 172.23 74.58 174.03 79.75 166.75 C 84.93 159.47 86.83 168.72 90.00 174.00
C 92.10 177.40 92.23 176.18 92.00 180.00
C 92.27 182.45 91.43 184.25 91.00 186.00
C 90.99 187.58 90.26 188.03 90.00 189.00
C 90.03 189.50 90.03 190.50 90.00 191.00
C 89.85 193.32 90.11 195.67 90.00 198.00
C 91.99 197.55 96.23 199.36 96.00 196.00
C 98.67 193.22 105.28 195.71 108.00 196.00
C 109.66 196.00 111.34 195.96 113.00 196.00
C 115.91 196.08 117.97 197.78 119.00 198.00
C 122.03 198.64 125.90 198.00 129.00 198.00
C 134.17 198.00 145.10 196.12 149.00 199.00
C 149.50 199.00 150.00 199.00 150.00 199.00
C 155.74 198.46 159.26 191.67 165.00 191.00
C 157.58 173.92 153.91 153.72 143.00 139.00
C 151.56 143.13 152.37 155.07 156.31 163.69 C 160.25 172.31 163.69 182.73 166.00 192.00
C 157.90 195.20 151.04 201.67 143.00 205.00
C 143.86 212.54 149.99 219.05 152.92 226.08 C 155.86 233.10 160.50 240.16 164.00 247.00
C 165.03 249.02 165.99 250.97 167.00 253.00
C 183.31 243.94 192.58 236.00 208.25 224.25 C 223.91 212.49 211.73 189.26 205.00 175.00
C 200.70 166.31 194.77 157.45 190.23 148.77 C 185.69 140.09 177.16 133.44 173.75 124.25 C 170.33 115.07 157.68 110.12 154.00 102.00
C 148.50 98.46 143.37 93.46 136.00 95.00
C 136.16 96.31 135.79 97.70 136.00 99.00
C 133.29 105.05 132.91 111.36 125.00 114.00 C 117.09 116.64 114.82 103.80 115.00 98.00
C 107.65 100.21 99.90 106.19 98.00 114.00
C 80.26 108.66 63.81 99.08 46.00 94.00
C 45.86 97.47 45.01 100.80 44.00 104.00
M 98.00 117.00 
C 90.56 133.87 79.48 154.22 68.00 169.00
C 77.43 151.60 87.20 133.46 98.00 117.00
M 119.00 175.00 
C 118.58 178.53 110.77 176.83 108.00 177.00 C 105.23 177.17 98.22 177.69 96.00 176.00
C 102.42 173.70 110.83 175.65 118.00 175.00
C 118.25 174.74 118.00 174.00 118.00 174.00
C 115.09 173.12 111.90 173.08 109.00 172.00
C 117.41 170.85 127.12 176.34 136.00 178.00
C 130.86 180.26 124.75 175.00 119.00 175.00
M 175.00 242.00 
C 167.33 229.80 159.68 216.29 154.00 203.00
C 161.96 213.87 170.99 229.21 175.00 242.00 Z"/>
</g>
<g fill="None" fill-opacity="0.0" stroke="#3F1D18" stroke-opacity="1.00" stroke-width="0.3"><path d="
M 154.00 102.00 
C 157.68 110.12 170.33 115.07 173.75 124.25 C 177.16 133.44 185.69 140.09 190.23 148.77 C 194.77 157.45 200.70 166.31 205.00 175.00
C 204.92 174.51 205.13 173.46 205.00 173.00
C 204.44 170.96 202.97 168.89 202.00 167.00
C 200.30 163.67 198.88 160.24 197.00 157.00
C 196.71 156.49 196.29 155.51 196.00 155.00
C 188.39 141.62 178.33 127.54 169.00 115.00
C 166.11 111.68 162.10 108.10 159.00 105.00
C 157.65 103.85 155.71 101.71 154.00 101.00
C 154.00 101.00 153.81 101.59 154.00 102.00 Z"/>
</g>
<g fill="None" fill-opacity="0.0" stroke="#F8DFDF" stroke-opacity="1.00" stroke-width="0.3"><path d="
M 42.00 106.00 
C 42.04 105.87 43.00 106.00 43.00 106.00
C 58.05 112.28 72.90 118.85 88.00 125.00
C 76.77 114.43 57.56 112.55 44.00 104.00
C 44.00 104.00 43.50 103.95 43.00 104.00
C 41.79 104.11 42.17 105.26 42.00 106.00 Z"/>
</g>
<g fill="None" fill-opacity="0.0" stroke="#706A6A" stroke-opacity="1.00" stroke-width="0.3"><path d="
M 169.00 115.00 
C 166.24 111.29 162.54 108.03 159.00 105.00
C 162.10 108.10 166.11 111.68 169.00 115.00 Z"/>
</g>
<g fill="None" fill-opacity="0.0" stroke="#3E211F" stroke-opacity="1.00" stroke-width="0.3"><path d="
M 38.00 127.00 
C 40.26 122.22 43.38 111.72 43.00 106.00
C 43.00 106.00 42.04 105.87 42.00 106.00
C 40.52 112.46 37.27 120.23 38.00 127.00 Z"/>
</g>
<g fill="None" fill-opacity="0.0" stroke="#FBDFDE" stroke-opacity="1.00" stroke-width="0.3"><path d="
M 98.00 117.00 
C 87.20 133.46 77.43 151.60 68.00 169.00
C 79.48 154.22 90.56 133.87 98.00 117.00 Z"/>
</g>
<g fill="None" fill-opacity="0.0" stroke="#FDC601" stroke-opacity="0.45" stroke-width="0.3"><path d="
M 223.00 126.00 
L 223.00 118.00
C 221.28 119.57 221.50 124.36 223.00 126.00 Z"/>
</g>
<g fill="None" fill-opacity="0.0" stroke="#FDC601" stroke-opacity="0.48" stroke-width="0.3"><path d="
M 0.00 125.00 
C 1.69 124.04 1.43 120.03 0.00 119.00
L 0.00 125.00 Z"/>
</g>
<g fill="None" fill-opacity="0.0" stroke="#000000" stroke-opacity="0.01" stroke-width="0.3"><path d="
M 0.00 277.00 
L 113.00 277.00
C 113.00 276.50 113.00 276.00 113.00 276.00
C 109.65 273.99 106.95 274.32 105.00 271.00
C 103.72 268.83 105.26 267.62 103.00 266.00
C 102.56 265.94 100.95 265.13 100.00 265.00
C 98.89 264.85 95.67 263.55 95.00 261.00
C 94.32 258.42 97.08 253.93 96.00 252.00
C 94.40 252.23 94.91 251.24 94.00 251.00
C 87.98 249.40 87.58 250.26 88.00 244.00
C 88.09 242.61 88.37 240.34 88.00 239.00
C 87.33 236.57 82.86 232.80 86.31 229.31 C 89.75 225.82 88.56 224.06 92.00 221.00
C 80.82 224.15 66.56 213.24 56.70 209.30 C 46.83 205.37 38.91 196.91 30.75 189.25 C 22.60 181.58 16.61 171.68 11.31 161.69 C 6.00 151.71 2.29 137.85 0.00 127.00
L 0.00 277.00 Z"/>
</g>
<g fill="None" fill-opacity="0.0" stroke="#000000" stroke-opacity="0.04" stroke-width="0.3"><path d="
M 205.00 173.00 
C 205.13 173.46 204.92 174.51 205.00 175.00
C 211.73 189.26 223.91 212.49 208.25 224.25 C 192.58 236.00 183.31 243.94 167.00 253.00
C 165.99 250.97 165.03 249.02 164.00 247.00
C 163.88 246.78 163.00 247.00 163.00 247.00
C 165.10 252.70 150.46 257.99 146.25 263.25 C 142.05 268.51 129.74 273.86 123.00 275.00
C 122.48 275.23 121.27 276.34 121.00 277.00
L 223.00 277.00
L 223.00 127.00
C 221.54 143.64 212.20 158.31 205.00 173.00 Z"/>
</g>
<g fill="None" fill-opacity="0.0" stroke="#291E1E" stroke-opacity="1.00" stroke-width="0.3"><path d="
M 37.00 134.00 
C 37.27 133.75 38.00 134.00 38.00 134.00
C 38.04 132.00 38.00 130.00 38.00 128.00
C 36.61 129.63 36.96 131.69 37.00 134.00 Z"/>
</g>
<g fill="None" fill-opacity="0.0" stroke="#620B0A" stroke-opacity="1.00" stroke-width="0.3"><path d="
M 37.00 137.00 
C 37.00 138.00 37.00 139.00 37.00 140.00
C 37.16 138.57 37.95 136.13 38.00 134.00
C 38.00 134.00 37.27 133.75 37.00 134.00
C 37.02 135.00 37.00 136.00 37.00 137.00 Z"/>
</g>
<g fill="None" fill-opacity="0.0" stroke="#302626" stroke-opacity="1.00" stroke-width="0.3"><path d="
M 36.00 145.00 
C 36.05 144.85 37.00 145.00 37.00 145.00
C 37.00 143.33 37.00 141.67 37.00 140.00
C 37.00 139.00 37.00 138.00 37.00 137.00
C 36.49 139.32 36.00 142.01 36.00 145.00 Z"/>
</g>
<g fill="None" fill-opacity="0.0" stroke="#EBACA7" stroke-opacity="1.00" stroke-width="0.3"><path d="
M 150.00 199.00 
C 149.75 199.09 149.28 199.77 149.00 200.00
C 147.18 201.52 142.88 202.53 142.00 205.00
C 142.00 205.04 143.00 205.00 143.00 205.00
C 151.04 201.67 157.90 195.20 166.00 192.00
C 163.69 182.73 160.25 172.31 156.31 163.69 C 152.37 155.07 151.56 143.13 143.00 139.00
C 153.91 153.72 157.58 173.92 165.00 191.00
C 159.26 191.67 155.74 198.46 150.00 199.00 Z"/>
</g>
<g fill="None" fill-opacity="0.0" stroke="#6B0B09" stroke-opacity="1.00" stroke-width="0.3"><path d="
M 36.00 150.00 
C 36.00 151.33 36.00 152.67 36.00 154.00
C 36.23 151.64 37.00 148.10 37.00 145.00
C 37.00 145.00 36.05 144.85 36.00 145.00
C 36.00 146.67 36.00 148.33 36.00 150.00 Z"/>
</g>
<g fill="None" fill-opacity="0.0" stroke="#221A1A" stroke-opacity="1.00" stroke-width="0.3"><path d="
M 36.00 164.00 
C 36.00 160.67 36.00 157.33 36.00 154.00
C 36.00 152.67 36.00 151.33 36.00 150.00
C 35.62 153.57 33.35 160.42 36.00 164.00 Z"/>
</g>
<g fill="None" fill-opacity="0.0" stroke="#362221" stroke-opacity="1.00" stroke-width="0.3"><path d="
M 65.00 177.00 
C 73.60 176.46 77.98 167.42 85.00 164.00
C 85.82 169.27 88.88 173.10 92.00 177.00
C 91.78 176.01 90.51 174.85 90.00 174.00
C 86.83 168.72 84.93 159.47 79.75 166.75 C 74.58 174.03 70.94 172.23 65.00 177.00 Z"/>
</g>
<g fill="None" fill-opacity="0.0" stroke="#2F1C1B" stroke-opacity="1.00" stroke-width="0.3"><path d="
M 64.00 177.00 
C 58.27 176.61 50.68 179.55 45.23 176.77 C 39.78 173.99 38.44 169.66 36.00 165.00
C 36.28 179.12 54.15 181.30 64.00 177.00 Z"/>
</g>
<g fill="None" fill-opacity="0.0" stroke="#490000" stroke-opacity="1.00" stroke-width="0.3"><path d="
M 118.00 174.00 
C 118.35 174.11 118.76 174.93 119.00 175.00
C 124.75 175.00 130.86 180.26 136.00 178.00
C 127.12 176.34 117.41 170.85 109.00 172.00
C 111.90 173.08 115.09 173.12 118.00 174.00 Z"/>
</g>
<g fill="None" fill-opacity="0.0" stroke="#800303" stroke-opacity="1.00" stroke-width="0.3"><path d="
M 92.00 177.00 
C 92.11 177.48 92.00 178.50 92.00 179.00
C 92.00 179.50 92.00 180.00 92.00 180.00
C 92.23 176.18 92.10 177.40 90.00 174.00
C 90.51 174.85 91.78 176.01 92.00 177.00 Z"/>
</g>
<g fill="None" fill-opacity="0.0" stroke="#950000" stroke-opacity="1.00" stroke-width="0.3"><path d="
M 118.00 175.00 
C 113.75 179.39 101.55 173.79 96.00 176.00
C 98.22 177.69 105.23 177.17 108.00 177.00 C 110.77 176.83 118.58 178.53 119.00 175.00
C 118.76 174.93 118.35 174.11 118.00 174.00
C 118.00 174.00 118.25 174.74 118.00 175.00 Z"/>
</g>
<g fill="None" fill-opacity="0.0" stroke="#3F0000" stroke-opacity="1.00" stroke-width="0.3"><path d="
M 96.00 176.00 
C 101.55 173.79 113.75 179.39 118.00 175.00
C 110.83 175.65 102.42 173.70 96.00 176.00 Z"/>
</g>
<g fill="None" fill-opacity="0.0" stroke="#461714" stroke-opacity="1.00" stroke-width="0.3"><path d="
M 91.00 184.00 
C 91.03 184.50 91.00 185.50 91.00 186.00
C 91.43 184.25 92.27 182.45 92.00 180.00
C 92.00 180.00 92.00 179.50 92.00 179.00
C 91.42 180.61 90.89 181.76 91.00 184.00 Z"/>
</g>
<g fill="None" fill-opacity="0.0" stroke="#332929" stroke-opacity="1.00" stroke-width="0.3"><path d="
M 90.00 189.00 
C 90.26 188.03 90.99 187.58 91.00 186.00
C 91.00 185.50 91.03 184.50 91.00 184.00
C 90.76 185.36 89.89 186.94 90.00 189.00 Z"/>
</g>
<g fill="None" fill-opacity="0.0" stroke="#1B1814" stroke-opacity="1.00" stroke-width="0.3"><path d="
M 88.00 197.00 
C 87.35 198.71 85.38 200.96 85.00 203.00
C 85.05 203.50 84.93 204.51 85.00 205.00
C 85.23 206.62 86.62 207.71 88.00 208.00
C 88.50 208.02 89.50 208.03 90.00 208.00
C 92.26 207.86 94.42 207.65 96.00 209.00
C 96.00 209.00 96.50 209.05 97.00 209.00
C 97.35 208.97 97.77 208.05 98.00 208.00
C 97.02 204.72 97.00 200.90 97.00 197.00
C 97.00 196.50 97.00 196.00 97.00 196.00
C 96.50 196.00 96.00 196.00 96.00 196.00
C 96.23 199.36 91.99 197.55 90.00 198.00
C 90.11 195.67 89.85 193.32 90.00 191.00
C 89.52 192.59 88.61 195.39 88.00 197.00 Z"/>
</g>
<g fill="None" fill-opacity="0.0" stroke="#5D0600" stroke-opacity="1.00" stroke-width="0.3"><path d="
M 96.00 196.00 
C 96.00 196.00 96.50 196.00 97.00 196.00
C 99.67 196.00 102.33 196.00 105.00 196.00
C 106.00 196.00 107.00 196.00 108.00 196.00
C 105.28 195.71 98.67 193.22 96.00 196.00 Z"/>
</g>
<g fill="None" fill-opacity="0.0" stroke="#957700" stroke-opacity="1.00" stroke-width="0.3"><path d="
M 97.00 197.00 
C 99.62 197.24 102.37 197.00 105.00 197.00
C 104.96 197.00 105.00 196.00 105.00 196.00
C 102.33 196.00 99.67 196.00 97.00 196.00
C 97.00 196.00 97.00 196.50 97.00 197.00 Z"/>
</g>
<g fill="None" fill-opacity="0.0" stroke="#654A00" stroke-opacity="1.00" stroke-width="0.3"><path d="
M 105.00 197.00 
C 107.63 197.00 110.38 197.24 113.00 197.00
C 113.09 196.98 113.00 196.00 113.00 196.00
C 111.34 195.96 109.66 196.00 108.00 196.00
C 107.00 196.00 106.00 196.00 105.00 196.00
C 105.00 196.00 104.96 197.00 105.00 197.00 Z"/>
</g>
<g fill="None" fill-opacity="0.0" stroke="#2D2104" stroke-opacity="1.00" stroke-width="0.3"><path d="
M 113.00 197.00 
C 114.62 196.71 116.37 197.22 118.00 197.00
C 118.00 200.67 118.00 204.33 118.00 208.00
C 118.00 208.50 118.00 209.00 118.00 209.00
C 118.50 209.00 119.00 209.00 119.00 209.00
C 119.03 208.65 119.88 208.26 120.00 208.00
C 120.19 207.59 120.00 207.00 120.00 207.00
C 118.07 204.39 120.34 200.78 119.00 198.00
C 117.97 197.78 115.91 196.08 113.00 196.00
C 113.00 196.00 113.09 196.98 113.00 197.00 Z"/>
</g>
<g fill="None" fill-opacity="0.0" stroke="#7D7D7D" stroke-opacity="1.00" stroke-width="0.3"><path d="
M 85.00 203.00 
C 85.38 200.96 87.35 198.71 88.00 197.00
C 86.68 199.39 84.55 198.31 85.00 203.00 Z"/>
</g>
<g fill="None" fill-opacity="0.0" stroke="#EABB00" stroke-opacity="1.00" stroke-width="0.3"><path d="
M 98.00 208.00 
C 103.61 206.75 112.26 207.48 118.00 208.00
C 118.00 204.33 118.00 200.67 118.00 197.00
C 116.37 197.22 114.62 196.71 113.00 197.00
C 110.38 197.24 107.63 197.00 105.00 197.00
C 102.37 197.00 99.62 197.24 97.00 197.00
C 97.00 200.90 97.02 204.72 98.00 208.00
M 107.00 206.00 
C 102.24 205.90 98.41 206.35 100.00 200.00
C 105.00 200.00 110.00 200.00 115.00 200.00
C 116.54 201.06 116.83 205.43 114.74 206.74 C 112.66 208.05 108.49 206.18 107.00 206.00 Z"/>
</g>
<g fill="None" fill-opacity="0.0" stroke="#181614" stroke-opacity="1.00" stroke-width="0.3"><path d="
M 120.00 207.00 
C 122.98 206.73 126.02 207.20 129.00 207.00
C 136.80 206.47 141.71 201.35 149.00 200.00
C 149.28 199.77 149.75 199.09 150.00 199.00
C 150.00 199.00 149.50 199.00 149.00 199.00
C 142.29 199.00 134.95 198.58 129.00 198.00
C 125.90 198.00 122.03 198.64 119.00 198.00
C 120.34 200.78 118.07 204.39 120.00 207.00 Z"/>
</g>
<g fill="None" fill-opacity="0.0" stroke="#4D0000" stroke-opacity="1.00" stroke-width="0.3"><path d="
M 149.00 199.00 
C 145.10 196.12 134.17 198.00 129.00 198.00
C 134.95 198.58 142.29 199.00 149.00 199.00 Z"/>
</g>
<g fill="None" fill-opacity="0.0" stroke="#161511" stroke-opacity="1.00" stroke-width="0.3"><path d="
M 107.00 206.00 
C 109.67 206.05 112.33 205.96 115.00 206.00
C 115.00 204.00 115.00 202.00 115.00 200.00
C 110.00 200.00 105.00 200.00 100.00 200.00
C 98.41 206.35 102.24 205.90 107.00 206.00 Z"/>
</g>
<g fill="None" fill-opacity="0.0" stroke="#8C7000" stroke-opacity="1.00" stroke-width="0.3"><path d="
M 107.00 206.00 
C 108.49 206.18 112.66 208.05 114.74 206.74 C 116.83 205.43 116.54 201.06 115.00 200.00
C 115.00 202.00 115.00 204.00 115.00 206.00
C 112.33 205.96 109.67 206.05 107.00 206.00 Z"/>
</g>
<g fill="None" fill-opacity="0.0" stroke="#E1C255" stroke-opacity="1.00" stroke-width="0.3"><path d="
M 129.00 207.00 
C 126.54 207.44 122.96 207.57 120.00 208.00
C 119.88 208.26 119.03 208.65 119.00 209.00
C 118.95 209.50 119.00 210.00 119.00 210.00
C 122.91 210.27 126.13 209.13 130.00 209.00
C 131.13 208.75 132.26 207.95 134.00 208.00
C 136.01 207.50 139.90 206.09 142.00 205.00
C 142.88 202.53 147.18 201.52 149.00 200.00
C 141.71 201.35 136.80 206.47 129.00 207.00 Z"/>
</g>
<g fill="None" fill-opacity="0.0" stroke="#FBE4E3" stroke-opacity="1.00" stroke-width="0.3"><path d="
M 175.00 242.00 
C 170.99 229.21 161.96 213.87 154.00 203.00
C 159.68 216.29 167.33 229.80 175.00 242.00 Z"/>
</g>
<g fill="None" fill-opacity="0.0" stroke="#FEFCF5" stroke-opacity="1.00" stroke-width="0.3"><path d="
M 134.00 208.00 
C 134.50 208.02 135.50 208.00 136.00 208.00
C 136.50 208.00 137.51 207.94 138.00 208.00
C 140.71 208.32 142.22 208.01 142.00 205.00
C 139.90 206.09 136.01 207.50 134.00 208.00 Z"/>
</g>
<g fill="None" fill-opacity="0.0" stroke="#2F1411" stroke-opacity="1.00" stroke-width="0.3"><path d="
M 138.00 208.00 
C 138.23 208.34 138.00 209.00 138.00 209.00
C 147.07 208.22 147.05 220.68 151.77 226.23 C 156.50 231.78 157.60 242.17 163.00 247.00
C 163.00 247.00 163.88 246.78 164.00 247.00
C 160.50 240.16 155.86 233.10 152.92 226.08 C 149.99 219.05 143.86 212.54 143.00 205.00
C 143.00 205.00 142.00 205.04 142.00 205.00
C 142.22 208.01 140.71 208.32 138.00 208.00 Z"/>
</g>
<g fill="None" fill-opacity="0.0" stroke="#8F7A32" stroke-opacity="1.00" stroke-width="0.3"><path d="
M 120.00 208.00 
C 122.96 207.57 126.54 207.44 129.00 207.00
C 126.02 207.20 122.98 206.73 120.00 207.00
C 120.00 207.00 120.19 207.59 120.00 208.00 Z"/>
</g>
<g fill="None" fill-opacity="0.0" stroke="#FBD859" stroke-opacity="1.00" stroke-width="0.3"><path d="
M 96.00 209.00 
C 94.42 207.65 92.26 207.86 90.00 208.00
C 91.82 208.73 93.52 209.27 96.00 209.00 Z"/>
</g>
<g fill="None" fill-opacity="0.0" stroke="#866D0D" stroke-opacity="1.00" stroke-width="0.3"><path d="
M 97.00 209.00 
C 98.94 210.44 101.38 209.96 104.00 210.00
C 106.00 210.03 108.00 210.00 110.00 210.00
C 112.10 209.80 115.23 209.00 118.00 209.00
C 118.00 209.00 118.00 208.50 118.00 208.00
C 112.26 207.48 103.61 206.75 98.00 208.00
C 97.77 208.05 97.35 208.97 97.00 209.00 Z"/>
</g>
<g fill="None" fill-opacity="0.0" stroke="#C2C2C0" stroke-opacity="1.00" stroke-width="0.3"><path d="
M 130.00 209.00 
C 131.51 208.95 133.55 209.40 135.00 209.00
C 135.12 208.74 135.74 208.11 136.00 208.00
C 135.50 208.00 134.50 208.02 134.00 208.00
C 132.26 207.95 131.13 208.75 130.00 209.00 Z"/>
</g>
<g fill="None" fill-opacity="0.0" stroke="#7E5951" stroke-opacity="1.00" stroke-width="0.3"><path d="
M 135.00 209.00 
C 134.81 209.41 135.00 210.00 135.00 210.00
C 135.98 209.92 137.76 210.46 138.00 209.00
C 138.00 209.00 138.23 208.34 138.00 208.00
C 137.51 207.94 136.50 208.00 136.00 208.00
C 135.74 208.11 135.12 208.74 135.00 209.00 Z"/>
</g>
<g fill="None" fill-opacity="0.0" stroke="#5D4B02" stroke-opacity="1.00" stroke-width="0.3"><path d="
M 110.00 210.00 
C 111.33 210.00 112.67 210.00 114.00 210.00
C 115.00 210.00 116.00 210.00 117.00 210.00
C 117.50 210.00 118.50 209.97 119.00 210.00
C 119.00 210.00 118.95 209.50 119.00 209.00
C 119.00 209.00 118.50 209.00 118.00 209.00
C 115.23 209.00 112.10 209.80 110.00 210.00 Z"/>
</g>
<g fill="None" fill-opacity="0.0" stroke="#3B2F2C" stroke-opacity="1.00" stroke-width="0.3"><path d="
M 119.00 210.00 
C 118.50 209.97 117.50 210.00 117.00 210.00
C 116.77 210.34 117.00 211.00 117.00 211.00
C 122.75 209.74 129.09 210.51 135.00 210.00
C 135.00 210.00 134.81 209.41 135.00 209.00
C 133.55 209.40 131.51 208.95 130.00 209.00
C 126.13 209.13 122.91 210.27 119.00 210.00 Z"/>
</g>
<g fill="None" fill-opacity="0.0" stroke="#FC927E" stroke-opacity="1.00" stroke-width="0.3"><path d="
M 135.00 210.00 
C 129.09 210.51 122.75 209.74 117.00 211.00
C 116.79 212.29 114.91 211.92 114.00 212.00
C 105.36 212.77 98.44 215.27 92.00 221.00
C 88.56 224.06 89.75 225.82 86.31 229.31 C 82.86 232.80 87.33 236.57 88.00 239.00
C 89.07 235.77 96.13 233.64 98.74 231.74 C 101.36 229.85 108.42 226.35 112.00 227.00
C 112.75 226.89 114.58 225.10 116.00 226.00
C 115.56 227.29 114.42 228.21 113.00 228.00
C 104.29 231.65 90.98 233.41 88.00 244.00
C 87.58 250.26 87.98 249.40 94.00 251.00
C 94.74 248.51 104.44 245.20 107.23 243.23 C 110.02 241.26 120.28 239.52 123.00 240.00
C 113.79 242.41 103.63 245.20 96.00 252.00
C 97.08 253.93 94.32 258.42 95.00 261.00
C 95.29 261.76 99.44 264.78 100.00 265.00
C 100.95 265.13 102.56 265.94 103.00 266.00
C 109.66 266.90 115.82 253.62 124.00 257.00
C 117.57 260.20 106.55 262.16 105.00 271.00
C 106.95 274.32 109.65 273.99 113.00 276.00
C 116.55 275.68 119.64 275.57 123.00 275.00
C 129.74 273.86 142.05 268.51 146.25 263.25 C 150.46 257.99 165.10 252.70 163.00 247.00
C 157.60 242.17 156.50 231.78 151.77 226.23 C 147.05 220.68 147.07 208.22 138.00 209.00
C 137.76 210.46 135.98 209.92 135.00 210.00 Z"/>
</g>
<g fill="None" fill-opacity="0.0" stroke="#E6DFC3" stroke-opacity="1.00" stroke-width="0.3"><path d="
M 105.00 212.00 
C 107.98 211.23 110.73 210.93 114.00 211.00
C 114.00 210.50 114.00 210.00 114.00 210.00
C 112.67 210.00 111.33 210.00 110.00 210.00
C 108.00 210.00 106.00 210.03 104.00 210.00
C 104.23 210.09 104.61 211.87 105.00 212.00 Z"/>
</g>
<g fill="None" fill-opacity="0.0" stroke="#80655C" stroke-opacity="1.00" stroke-width="0.3"><path d="
M 114.00 211.00 
C 114.00 211.50 114.00 212.00 114.00 212.00
C 114.91 211.92 116.79 212.29 117.00 211.00
C 117.00 211.00 116.77 210.34 117.00 210.00
C 116.00 210.00 115.00 210.00 114.00 210.00
C 114.00 210.00 114.00 210.50 114.00 211.00 Z"/>
</g>
<g fill="None" fill-opacity="0.0" stroke="#44322C" stroke-opacity="1.00" stroke-width="0.3"><path d="
M 105.00 212.00 
C 101.37 212.94 99.02 214.52 96.00 217.00
C 95.06 217.77 93.10 220.69 92.00 221.00
C 98.44 215.27 105.36 212.77 114.00 212.00
C 114.00 212.00 114.00 211.50 114.00 211.00
C 110.73 210.93 107.98 211.23 105.00 212.00 Z"/>
</g>
<g fill="None" fill-opacity="0.0" stroke="#915449" stroke-opacity="1.00" stroke-width="0.3"><path d="
M 112.00 227.00 
C 112.35 227.06 112.85 228.01 113.00 228.00
C 114.42 228.21 115.56 227.29 116.00 226.00
C 114.58 225.10 112.75 226.89 112.00 227.00 Z"/>
</g>
<g fill="None" fill-opacity="0.0" stroke="#523029" stroke-opacity="1.00" stroke-width="0.3"><path d="
M 88.00 239.00 
C 88.37 240.34 88.09 242.61 88.00 244.00
C 90.98 233.41 104.29 231.65 113.00 228.00
C 112.85 228.01 112.35 227.06 112.00 227.00
C 108.42 226.35 101.36 229.85 98.74 231.74 C 96.13 233.64 89.07 235.77 88.00 239.00 Z"/>
</g>
<g fill="None" fill-opacity="0.0" stroke="#55312B" stroke-opacity="1.00" stroke-width="0.3"><path d="
M 94.00 251.00 
C 94.91 251.24 94.40 252.23 96.00 252.00
C 103.63 245.20 113.79 242.41 123.00 240.00
C 120.28 239.52 110.02 241.26 107.23 243.23 C 104.44 245.20 94.74 248.51 94.00 251.00 Z"/>
</g>
<g fill="None" fill-opacity="0.0" stroke="#4C2C26" stroke-opacity="0.99" stroke-width="0.3"><path d="
M 103.00 266.00 
C 105.26 267.62 103.72 268.83 105.00 271.00
C 106.55 262.16 117.57 260.20 124.00 257.00
C 115.82 253.62 109.66 266.90 103.00 266.00 Z"/>
</g>
<g fill="None" fill-opacity="0.0" stroke="#1C100E" stroke-opacity="0.86" stroke-width="0.3"><path d="
M 100.00 265.00 
C 99.44 264.78 95.29 261.76 95.00 261.00
C 95.67 263.55 98.89 264.85 100.00 265.00 Z"/>
</g>
<g fill="None" fill-opacity="0.0" stroke="#1F110F" stroke-opacity="0.93" stroke-width="0.3"><path d="
M 113.00 276.00 
C 113.00 276.00 113.00 276.50 113.00 277.00
L 121.00 277.00
C 121.27 276.34 122.48 275.23 123.00 275.00
C 119.64 275.57 116.55 275.68 113.00 276.00 Z"/>
</g>
<g fill="#000000" fill-opacity="0.00" stroke="None">
<path d="
M 0.00 96.00 
C 6.15 48.17 48.24 6.14 96.00 0.00
L 0.00 0.00
L 0.00 96.00 Z"/>
</g>
<g fill="#FDC91E" fill-opacity="0.90" stroke="None">
<path d="
M 0.00 96.00 
L 0.00 119.00
C 1.43 120.03 1.69 124.04 0.00 125.00
L 0.00 127.00
C 2.29 137.85 6.00 151.71 11.31 161.69 C 16.61 171.68 22.60 181.58 30.75 189.25 C 38.91 196.91 46.83 205.37 56.70 209.30 C 66.56 213.24 80.82 224.15 92.00 221.00
C 93.10 220.69 95.06 217.77 96.00 217.00
C 88.65 218.35 78.95 212.07 71.92 210.08 C 64.90 208.08 57.10 203.11 50.92 199.08 C 44.74 195.05 39.54 190.32 34.25 184.75 C 28.96 179.18 24.25 173.51 20.25 166.75 C 16.24 160.00 13.55 153.05 10.68 145.32 C 7.81 137.59 5.91 127.43 5.22 118.78 C 4.53 110.13 5.46 98.26 7.00 90.00 C 8.53 81.73 11.95 73.70 15.31 66.31 C 18.66 58.91 22.11 53.23 26.77 46.77 C 31.43 40.31 36.76 36.00 42.70 30.70 C 48.63 25.39 54.44 21.37 61.69 17.69 C 68.95 14.02 75.75 11.07 84.01 9.01 C 92.27 6.94 102.98 4.88 112.00 5.00 C 121.02 5.12 130.81 6.91 139.07 8.93 C 147.33 10.94 154.81 14.22 162.08 17.92 C 169.34 21.63 174.26 25.58 180.25 30.75 C 186.24 35.92 191.54 40.29 196.25 46.75 C 200.95 53.22 204.11 58.80 207.77 66.23 C 211.43 73.66 213.80 81.69 215.93 90.07 C 218.05 98.45 217.33 109.80 217.67 118.67 C 218.01 127.54 213.16 137.11 212.22 145.22 C 211.29 153.34 202.33 159.96 202.00 167.00
C 202.97 168.89 204.44 170.96 205.00 173.00
C 212.20 158.31 221.54 143.64 223.00 127.00
L 223.00 126.00
C 221.50 124.36 221.28 119.57 223.00 118.00
L 223.00 96.00
C 216.73 47.91 174.20 5.55 126.00 0.00
L 125.00 0.00
C 123.67 1.47 119.26 1.71 118.00 0.00
L 96.00 0.00
C 48.24 6.14 6.15 48.17 0.00 96.00 Z"/>
</g>
<g fill="#FDC601" fill-opacity="0.52" stroke="None">
<path d="
M 125.00 0.00 
L 118.00 0.00
C 119.26 1.71 123.67 1.47 125.00 0.00 Z"/>
</g>
<g fill="#000000" fill-opacity="0.00" stroke="None">
<path d="
M 223.00 96.00 
L 223.00 0.00
L 126.00 0.00
C 174.20 5.55 216.73 47.91 223.00 96.00 Z"/>
</g>
<g fill="#FEFEFC" fill-opacity="1.00" stroke="None">
<path d="
M 96.00 217.00 
C 99.02 214.52 101.37 212.94 105.00 212.00
C 104.61 211.87 104.23 210.09 104.00 210.00
C 101.38 209.96 98.94 210.44 97.00 209.00
C 96.50 209.05 96.00 209.00 96.00 209.00
C 93.52 209.27 91.82 208.73 90.00 208.00
C 89.50 208.03 88.50 208.02 88.00 208.00
C 78.01 207.59 67.48 200.81 58.77 196.23 C 50.06 191.64 42.81 184.70 35.75 177.25 C 28.70 169.80 24.01 160.61 19.68 151.32 C 15.34 142.04 12.04 129.01 11.22 118.78 C 10.41 108.54 11.26 107.22 12.00 99.00 C 12.74 90.78 13.49 89.41 15.93 81.93 C 18.36 74.45 17.74 75.08 21.92 66.92 C 26.10 58.77 32.72 49.23 39.75 42.75 C 46.78 36.27 43.41 38.56 50.75 32.75 C 58.09 26.94 68.89 21.37 77.68 18.68 C 86.46 15.98 86.54 15.20 94.07 14.07 C 101.61 12.95 106.89 13.04 114.00 13.00 C 121.11 12.96 125.75 14.27 132.22 15.78 C 138.70 17.29 141.86 17.91 148.22 20.78 C 154.59 23.64 154.90 23.55 162.08 27.92 C 169.27 32.29 178.49 40.21 184.25 46.75 C 190.00 53.30 189.30 53.23 193.25 58.75 C 197.21 64.26 197.92 67.18 200.32 72.68 C 202.72 78.17 204.37 82.46 205.93 88.07 C 207.48 93.68 207.75 100.69 208.78 106.22 C 209.81 111.75 208.18 120.82 207.67 125.67 C 207.16 130.52 205.26 139.33 203.68 142.68 C 202.10 146.02 199.95 157.04 197.00 157.00
C 198.88 160.24 200.30 163.67 202.00 167.00
C 202.33 159.96 211.29 153.34 212.22 145.22 C 213.16 137.11 218.01 127.54 217.67 118.67 C 217.33 109.80 218.05 98.45 215.93 90.07 C 213.80 81.69 211.43 73.66 207.77 66.23 C 204.11 58.80 200.95 53.22 196.25 46.75 C 191.54 40.29 186.24 35.92 180.25 30.75 C 174.26 25.58 169.34 21.63 162.08 17.92 C 154.81 14.22 147.33 10.94 139.07 8.93 C 130.81 6.91 121.02 5.12 112.00 5.00 C 102.98 4.88 92.27 6.94 84.01 9.01 C 75.75 11.07 68.95 14.02 61.69 17.69 C 54.44 21.37 48.63 25.39 42.70 30.70 C 36.76 36.00 31.43 40.31 26.77 46.77 C 22.11 53.23 18.66 58.91 15.31 66.31 C 11.95 73.70 8.53 81.73 7.00 90.00 C 5.46 98.26 4.53 110.13 5.22 118.78 C 5.91 127.43 7.81 137.59 10.68 145.32 C 13.55 153.05 16.24 160.00 20.25 166.75 C 24.25 173.51 28.96 179.18 34.25 184.75 C 39.54 190.32 44.74 195.05 50.92 199.08 C 57.10 203.11 64.90 208.08 71.92 210.08 C 78.95 212.07 88.65 218.35 96.00 217.00 Z"/>
</g>
<g fill="#FAD652" fill-opacity="1.00" stroke="None">
<path d="
M 88.00 208.00 
C 86.62 207.71 85.23 206.62 85.00 205.00
C 77.72 200.34 66.12 199.81 59.25 193.75 C 52.39 187.68 43.88 184.50 38.25 176.75 C 32.62 169.01 27.51 163.58 23.23 154.77 C 18.95 145.96 16.10 135.40 14.67 125.33 C 13.24 115.26 13.72 100.60 15.93 90.93 C 18.14 81.25 21.35 71.62 26.31 63.31 C 31.26 54.99 35.86 49.62 42.75 42.75 C 49.64 35.88 56.09 31.14 64.70 26.70 C 73.30 22.25 83.08 18.41 93.01 17.01 C 102.94 15.61 118.17 15.08 128.00 17.00 C 137.83 18.92 147.62 22.18 156.08 26.92 C 164.53 31.66 170.20 36.09 177.25 42.75 C 184.30 49.42 188.64 55.85 193.77 64.23 C 198.90 72.61 200.86 81.12 203.98 91.02 C 207.09 100.93 204.84 115.54 205.01 126.01 C 205.17 136.48 196.70 145.40 196.00 155.00
C 196.29 155.51 196.71 156.49 197.00 157.00
C 199.95 157.04 202.10 146.02 203.68 142.68 C 205.26 139.33 207.16 130.52 207.67 125.67 C 208.18 120.82 209.81 111.75 208.78 106.22 C 207.75 100.69 207.48 93.68 205.93 88.07 C 204.37 82.46 202.72 78.17 200.32 72.68 C 197.92 67.18 197.21 64.26 193.25 58.75 C 189.30 53.23 190.00 53.30 184.25 46.75 C 178.49 40.21 169.27 32.29 162.08 27.92 C 154.90 23.55 154.59 23.64 148.22 20.78 C 141.86 17.91 138.70 17.29 132.22 15.78 C 125.75 14.27 121.11 12.96 114.00 13.00 C 106.89 13.04 101.61 12.95 94.07 14.07 C 86.54 15.20 86.46 15.98 77.68 18.68 C 68.89 21.37 58.09 26.94 50.75 32.75 C 43.41 38.56 46.78 36.27 39.75 42.75 C 32.72 49.23 26.10 58.77 21.92 66.92 C 17.74 75.08 18.36 74.45 15.93 81.93 C 13.49 89.41 12.74 90.78 12.00 99.00 C 11.26 107.22 10.41 108.54 11.22 118.78 C 12.04 129.01 15.34 142.04 19.68 151.32 C 24.01 160.61 28.70 169.80 35.75 177.25 C 42.81 184.70 50.06 191.64 58.77 196.23 C 67.48 200.81 78.01 207.59 88.00 208.00 Z"/>
</g>
<g fill="#FDFDFC" fill-opacity="1.00" stroke="None">
<path d="
M 85.00 205.00 
C 84.93 204.51 85.05 203.50 85.00 203.00
C 84.55 198.31 86.68 199.39 88.00 197.00
C 88.61 195.39 89.52 192.59 90.00 191.00
C 90.03 190.50 90.03 189.50 90.00 189.00
C 89.89 186.94 90.76 185.36 91.00 184.00
C 90.89 181.76 91.42 180.61 92.00 179.00
C 92.00 178.50 92.11 177.48 92.00 177.00
C 88.88 173.10 85.82 169.27 85.00 164.00
C 77.98 167.42 73.60 176.46 65.00 177.00
C 64.51 177.08 64.00 177.00 64.00 177.00
C 54.15 181.30 36.28 179.12 36.00 165.00
C 35.99 164.50 36.00 164.00 36.00 164.00
C 33.35 160.42 35.62 153.57 36.00 150.00
C 36.00 148.33 36.00 146.67 36.00 145.00
C 36.00 142.01 36.49 139.32 37.00 137.00
C 37.00 136.00 37.02 135.00 37.00 134.00
C 36.96 131.69 36.61 129.63 38.00 128.00
C 38.00 127.50 38.00 127.00 38.00 127.00
C 37.27 120.23 40.52 112.46 42.00 106.00
C 42.17 105.26 41.79 104.11 43.00 104.00
C 44.47 100.25 43.94 95.63 46.00 92.00
C 48.74 92.21 54.11 97.52 55.00 93.00
C 54.71 89.81 55.77 86.41 56.00 84.00
C 55.78 81.53 55.70 78.46 56.00 76.00
C 56.09 75.25 55.84 74.11 57.00 74.00
C 55.68 59.40 64.62 44.87 72.00 34.00
C 78.00 34.00 84.00 34.00 90.00 34.00
C 94.79 33.46 96.27 30.77 100.00 28.00
C 106.68 23.03 117.12 25.87 124.67 24.67 C 132.22 23.47 140.83 23.70 145.75 30.25 C 150.67 36.80 152.58 41.53 153.93 50.07 C 155.27 58.62 158.06 60.28 165.75 66.25 C 173.44 72.21 157.57 77.49 164.92 85.08 C 172.27 92.67 154.24 97.08 154.00 101.00
C 155.71 101.71 157.65 103.85 159.00 105.00
C 162.54 108.03 166.24 111.29 169.00 115.00
C 178.33 127.54 188.39 141.62 196.00 155.00
C 196.70 145.40 205.17 136.48 205.01 126.01 C 204.84 115.54 207.09 100.93 203.98 91.02 C 200.86 81.12 198.90 72.61 193.77 64.23 C 188.64 55.85 184.30 49.42 177.25 42.75 C 170.20 36.09 164.53 31.66 156.08 26.92 C 147.62 22.18 137.83 18.92 128.00 17.00 C 118.17 15.08 102.94 15.61 93.01 17.01 C 83.08 18.41 73.30 22.25 64.70 26.70 C 56.09 31.14 49.64 35.88 42.75 42.75 C 35.86 49.62 31.26 54.99 26.31 63.31 C 21.35 71.62 18.14 81.25 15.93 90.93 C 13.72 100.60 13.24 115.26 14.67 125.33 C 16.10 135.40 18.95 145.96 23.23 154.77 C 27.51 163.58 32.62 169.01 38.25 176.75 C 43.88 184.50 52.39 187.68 59.25 193.75 C 66.12 199.81 77.72 200.34 85.00 205.00 Z"/>
</g>
<g fill="#000000" fill-opacity="1.00" stroke="None">
<path d="
M 100.00 28.00 
C 97.54 30.14 95.73 33.09 93.00 35.00
C 92.77 35.16 93.00 36.00 93.00 36.00
C 92.24 37.45 92.49 38.54 92.00 40.00
C 91.74 40.78 91.23 41.19 91.00 42.00
C 90.30 44.41 89.99 46.61 89.00 49.00
C 88.82 49.43 89.00 50.00 89.00 50.00
C 89.25 50.25 90.00 50.00 90.00 50.00
C 92.96 49.94 93.74 43.90 95.00 41.00
C 104.60 48.36 116.95 53.72 129.00 58.00
C 129.85 61.68 130.38 66.10 134.00 68.00
C 143.72 53.87 146.53 77.68 136.00 80.00
C 135.20 80.09 133.72 79.67 133.00 80.00
C 132.16 82.52 134.59 94.43 135.00 99.00
C 135.19 98.76 136.00 99.00 136.00 99.00
C 135.79 97.70 136.16 96.31 136.00 95.00
C 143.37 93.46 148.50 98.46 154.00 102.00
C 153.81 101.59 154.00 101.00 154.00 101.00
C 154.24 97.08 172.27 92.67 164.92 85.08 C 157.57 77.49 173.44 72.21 165.75 66.25 C 158.06 60.28 155.27 58.62 153.93 50.07 C 152.58 41.53 150.67 36.80 145.75 30.25 C 140.83 23.70 132.22 23.47 124.67 24.67 C 117.12 25.87 106.68 23.03 100.00 28.00 Z"/>
</g>
<g fill="#A3A3A3" fill-opacity="1.00" stroke="None">
<path d="
M 90.00 34.00 
C 90.37 34.08 92.30 34.78 93.00 35.00
C 95.73 33.09 97.54 30.14 100.00 28.00
C 96.27 30.77 94.79 33.46 90.00 34.00 Z"/>
</g>
<g fill="#342C2A" fill-opacity="1.00" stroke="None">
<path d="
M 57.00 74.00 
C 57.50 73.95 58.00 74.00 58.00 74.00
C 58.80 63.93 61.08 50.41 67.00 42.00
C 67.97 40.63 68.96 38.67 71.00 39.00
C 71.00 43.00 71.00 47.00 71.00 51.00
C 71.13 50.78 72.00 51.00 72.00 51.00
C 72.00 46.16 69.62 36.63 75.03 35.03 C 80.44 33.42 87.71 36.83 93.00 36.00
C 93.00 36.00 92.77 35.16 93.00 35.00
C 92.30 34.78 90.37 34.08 90.00 34.00
C 84.00 34.00 78.00 34.00 72.00 34.00
C 64.62 44.87 55.68 59.40 57.00 74.00 Z"/>
</g>
<g fill="#ADADAD" fill-opacity="1.00" stroke="None">
<path d="
M 72.00 51.00 
C 72.00 63.49 73.12 76.57 72.00 89.00
C 71.71 91.74 72.50 94.80 76.00 94.00
C 72.99 85.90 73.25 72.92 74.00 64.00 C 74.75 55.08 69.09 37.41 81.00 38.00
C 82.04 42.65 88.70 41.32 92.00 40.00
C 92.49 38.54 92.24 37.45 93.00 36.00
C 87.71 36.83 80.44 33.42 75.03 35.03 C 69.62 36.63 72.00 46.16 72.00 51.00 Z"/>
</g>
<g fill="#272120" fill-opacity="1.00" stroke="None">
<path d="
M 72.00 89.00 
C 71.99 89.05 71.00 89.00 71.00 89.00
C 71.00 89.50 71.01 90.50 71.00 91.00
C 70.93 97.72 83.51 95.25 87.23 90.23 C 90.95 85.21 98.79 90.92 104.00 92.00
C 103.77 91.84 104.00 91.00 104.00 91.00
C 93.61 89.24 93.14 79.03 88.00 75.00
C 88.77 77.25 89.16 79.71 90.00 82.00
C 92.13 87.81 87.50 87.02 81.30 91.30 C 75.10 95.59 73.79 85.34 75.00 79.00 C 76.21 72.66 73.86 63.27 75.00 57.00 C 76.14 50.73 71.19 38.94 80.00 39.00
C 81.08 44.02 87.26 41.32 91.00 42.00
C 91.23 41.19 91.74 40.78 92.00 40.00
C 88.70 41.32 82.04 42.65 81.00 38.00
C 69.09 37.41 74.75 55.08 74.00 64.00 C 73.25 72.92 72.99 85.90 76.00 94.00
C 72.50 94.80 71.71 91.74 72.00 89.00 Z"/>
</g>
<g fill="#AF6557" fill-opacity="1.00" stroke="None">
<path d="
M 67.00 42.00 
C 67.74 41.22 69.10 40.54 70.00 40.00
C 70.00 45.00 70.00 50.00 70.00 55.00
C 70.00 54.96 71.00 55.00 71.00 55.00
C 71.00 53.67 71.00 52.33 71.00 51.00
C 71.00 47.00 71.00 43.00 71.00 39.00
C 68.96 38.67 67.97 40.63 67.00 42.00 Z"/>
</g>
<g fill="#F8F7F7" fill-opacity="1.00" stroke="None">
<path d="
M 90.00 82.00 
C 87.61 80.96 78.37 85.59 79.08 78.92 C 79.79 72.24 74.72 55.62 87.00 59.00
C 87.00 58.15 86.57 55.71 87.00 55.00
C 73.51 55.51 77.38 47.95 89.00 49.00
C 89.99 46.61 90.30 44.41 91.00 42.00
C 87.26 41.32 81.08 44.02 80.00 39.00
C 71.19 38.94 76.14 50.73 75.00 57.00 C 73.86 63.27 76.21 72.66 75.00 79.00 C 73.79 85.34 75.10 95.59 81.30 91.30 C 87.50 87.02 92.13 87.81 90.00 82.00 Z"/>
</g>
<g fill="#FC927E" fill-opacity="1.00" stroke="None">
<path d="
M 67.00 42.00 
C 61.08 50.41 58.80 63.93 58.00 74.00
C 57.89 75.36 57.18 76.19 57.00 77.00
C 57.40 79.16 57.00 81.80 57.00 84.00
C 57.00 86.35 55.80 91.63 56.00 93.00
C 56.14 99.34 69.70 100.73 75.08 103.92 C 80.45 107.12 91.52 110.71 98.00 112.00
C 98.94 104.21 108.73 100.84 110.00 93.00
C 108.12 92.53 105.07 94.06 104.00 92.00
C 98.79 90.92 90.95 85.21 87.23 90.23 C 83.51 95.25 70.93 97.72 71.00 91.00
C 67.30 81.58 70.00 65.59 70.00 55.00
C 70.00 50.00 70.00 45.00 70.00 40.00
C 69.10 40.54 67.74 41.22 67.00 42.00 Z"/>
</g>
<g fill="#F8917D" fill-opacity="1.00" stroke="None">
<path d="
M 90.00 50.00 
C 89.64 51.64 88.95 53.85 88.00 55.00
C 88.54 61.02 87.52 67.77 87.00 73.00
C 87.16 74.33 87.71 74.16 88.00 75.00
C 93.14 79.03 93.61 89.24 104.00 91.00
C 113.48 92.60 121.93 92.37 129.00 84.00
C 127.06 89.19 122.07 94.71 117.00 97.00
C 116.24 102.41 117.50 114.92 124.67 112.67 C 131.85 110.42 132.15 103.89 135.00 99.00
C 134.59 94.43 132.16 82.52 133.00 80.00
C 133.30 79.10 132.76 77.92 133.00 77.00
C 135.21 76.29 136.46 77.90 136.00 80.00
C 146.53 77.68 143.72 53.87 134.00 68.00
C 130.38 66.10 129.85 61.68 129.00 58.00
C 116.95 53.72 104.60 48.36 95.00 41.00
C 93.74 43.90 92.96 49.94 90.00 50.00
M 98.00 54.00 
C 86.74 56.56 96.85 44.85 98.00 54.00
M 114.00 55.00 
C 111.50 57.08 105.89 56.28 107.00 52.00
C 109.72 51.61 113.00 52.05 114.00 55.00
M 96.00 58.00 
C 99.72 59.29 97.24 64.73 93.33 62.67 C 89.41 60.60 92.15 56.67 96.00 58.00
M 114.00 60.00 
C 113.65 63.72 109.52 65.84 106.00 65.00
C 104.73 59.10 109.75 58.28 114.00 60.00
M 100.00 62.00 
C 96.87 67.31 98.07 74.38 106.00 72.00
C 98.74 77.67 93.34 66.19 100.00 62.00
M 141.00 68.00 
C 141.24 71.36 138.80 75.30 136.00 77.00
C 136.57 73.77 139.85 71.48 140.00 68.00
C 138.72 68.66 137.57 69.30 136.00 69.00
C 136.43 66.91 140.07 66.03 141.00 68.00
M 108.00 76.00 
C 107.16 78.35 101.01 79.51 101.00 76.00
C 103.44 77.19 106.36 73.39 108.00 76.00 Z"/>
</g>
<g fill="#FD3432" fill-opacity="1.00" stroke="None">
<path d="
M 87.00 55.00 
C 87.01 53.19 88.10 51.25 89.00 50.00
C 89.00 50.00 88.82 49.43 89.00 49.00
C 77.38 47.95 73.51 55.51 87.00 55.00 Z"/>
</g>
<g fill="#632822" fill-opacity="1.00" stroke="None">
<path d="
M 87.00 55.00 
C 87.13 54.78 88.00 55.00 88.00 55.00
C 88.95 53.85 89.64 51.64 90.00 50.00
C 90.00 50.00 89.25 50.25 89.00 50.00
C 88.10 51.25 87.01 53.19 87.00 55.00 Z"/>
</g>
<g fill="#080403" fill-opacity="1.00" stroke="None">
<path d="
M 98.00 54.00 
C 96.85 44.85 86.74 56.56 98.00 54.00 Z"/>
</g>
<g fill="#555353" fill-opacity="1.00" stroke="None">
<path d="
M 71.00 55.00 
C 71.00 66.33 71.00 77.67 71.00 89.00
C 71.00 89.00 71.99 89.05 72.00 89.00
C 73.12 76.57 72.00 63.49 72.00 51.00
C 72.00 51.00 71.13 50.78 71.00 51.00
C 71.00 52.33 71.00 53.67 71.00 55.00 Z"/>
</g>
<g fill="#130907" fill-opacity="1.00" stroke="None">
<path d="
M 114.00 55.00 
C 113.00 52.05 109.72 51.61 107.00 52.00
C 105.89 56.28 111.50 57.08 114.00 55.00 Z"/>
</g>
<g fill="#864E43" fill-opacity="1.00" stroke="None">
<path d="
M 71.00 91.00 
C 71.01 90.50 71.00 89.50 71.00 89.00
C 71.00 77.67 71.00 66.33 71.00 55.00
C 71.00 55.00 70.00 54.96 70.00 55.00
C 70.00 65.59 67.30 81.58 71.00 91.00 Z"/>
</g>
<g fill="#140E0D" fill-opacity="1.00" stroke="None">
<path d="
M 87.00 59.00 
C 87.00 63.55 86.44 68.49 87.00 73.00
C 87.52 67.77 88.54 61.02 88.00 55.00
C 88.00 55.00 87.13 54.78 87.00 55.00
C 86.57 55.71 87.00 58.15 87.00 59.00 Z"/>
</g>
<g fill="#0A0403" fill-opacity="1.00" stroke="None">
<path d="
M 96.00 58.00 
C 92.15 56.67 89.41 60.60 93.33 62.67 C 97.24 64.73 99.72 59.29 96.00 58.00 Z"/>
</g>
<g fill="#FEACAC" fill-opacity="1.00" stroke="None">
<path d="
M 90.00 82.00 
C 89.16 79.71 88.77 77.25 88.00 75.00
C 87.71 74.16 87.16 74.33 87.00 73.00
C 86.44 68.49 87.00 63.55 87.00 59.00
C 74.72 55.62 79.79 72.24 79.08 78.92 C 78.37 85.59 87.61 80.96 90.00 82.00 Z"/>
</g>
<g fill="#080302" fill-opacity="1.00" stroke="None">
<path d="
M 114.00 60.00 
C 109.75 58.28 104.73 59.10 106.00 65.00
C 109.52 65.84 113.65 63.72 114.00 60.00 Z"/>
</g>
<g fill="#472A24" fill-opacity="1.00" stroke="None">
<path d="
M 100.00 62.00 
C 93.34 66.19 98.74 77.67 106.00 72.00
C 98.07 74.38 96.87 67.31 100.00 62.00 Z"/>
</g>
<g fill="#7D493F" fill-opacity="1.00" stroke="None">
<path d="
M 140.00 68.00 
C 140.40 67.80 141.00 68.00 141.00 68.00
C 140.07 66.03 136.43 66.91 136.00 69.00
C 137.57 69.30 138.72 68.66 140.00 68.00 Z"/>
</g>
<g fill="#4B2C26" fill-opacity="1.00" stroke="None">
<path d="
M 141.00 68.00 
C 141.00 68.00 140.40 67.80 140.00 68.00
C 139.85 71.48 136.57 73.77 136.00 77.00
C 138.80 75.30 141.24 71.36 141.00 68.00 Z"/>
</g>
<g fill="#88635C" fill-opacity="1.00" stroke="None">
<path d="
M 56.00 76.00 
C 56.11 76.26 56.93 76.65 57.00 77.00
C 57.18 76.19 57.89 75.36 58.00 74.00
C 58.00 74.00 57.50 73.95 57.00 74.00
C 55.84 74.11 56.09 75.25 56.00 76.00 Z"/>
</g>
<g fill="#261612" fill-opacity="1.00" stroke="None">
<path d="
M 108.00 76.00 
C 106.36 73.39 103.44 77.19 101.00 76.00
C 101.01 79.51 107.16 78.35 108.00 76.00 Z"/>
</g>
<g fill="#241D1C" fill-opacity="1.00" stroke="None">
<path d="
M 56.00 84.00 
C 56.00 83.96 57.00 84.00 57.00 84.00
C 57.00 81.80 57.40 79.16 57.00 77.00
C 56.93 76.65 56.11 76.26 56.00 76.00
C 55.70 78.46 55.78 81.53 56.00 84.00 Z"/>
</g>
<g fill="#FDF7F6" fill-opacity="1.00" stroke="None">
<path d="
M 133.00 80.00 
C 133.72 79.67 135.20 80.09 136.00 80.00
C 136.46 77.90 135.21 76.29 133.00 77.00
C 132.76 77.92 133.30 79.10 133.00 80.00 Z"/>
</g>
<g fill="#8C8B8B" fill-opacity="1.00" stroke="None">
<path d="
M 55.00 93.00 
C 55.05 92.85 56.00 93.00 56.00 93.00
C 56.27 90.02 55.73 86.98 56.00 84.00
C 55.77 86.41 54.71 89.81 55.00 93.00 Z"/>
</g>
<g fill="#72443C" fill-opacity="1.00" stroke="None">
<path d="
M 56.00 93.00 
C 55.80 91.63 57.00 86.35 57.00 84.00
C 57.00 84.00 56.00 83.96 56.00 84.00
C 55.73 86.98 56.27 90.02 56.00 93.00 Z"/>
</g>
<g fill="#301B18" fill-opacity="1.00" stroke="None">
<path d="
M 104.00 91.00 
C 104.00 91.00 103.77 91.84 104.00 92.00
C 105.07 94.06 108.12 92.53 110.00 93.00
C 108.73 100.84 98.94 104.21 98.00 112.00
C 91.52 110.71 80.45 107.12 75.08 103.92 C 69.70 100.73 56.14 99.34 56.00 93.00
C 56.00 93.00 55.05 92.85 55.00 93.00
C 54.11 97.52 48.74 92.21 46.00 92.00
C 43.94 95.63 44.47 100.25 43.00 104.00
C 43.50 103.95 44.00 104.00 44.00 104.00
C 45.01 100.80 45.86 97.47 46.00 94.00
C 63.81 99.08 80.26 108.66 98.00 114.00
C 99.90 106.19 107.65 100.21 115.00 98.00
C 114.82 103.80 117.09 116.64 125.00 114.00 C 132.91 111.36 133.29 105.05 136.00 99.00
C 136.00 99.00 135.19 98.76 135.00 99.00
C 132.15 103.89 131.85 110.42 124.67 112.67 C 117.50 114.92 116.24 102.41 117.00 97.00
C 122.07 94.71 127.06 89.19 129.00 84.00
C 121.93 92.37 113.48 92.60 104.00 91.00 Z"/>
</g>
<g fill="#D30201" fill-opacity="1.00" stroke="None">
<path d="
M 44.00 104.00 
C 57.56 112.55 76.77 114.43 88.00 125.00
C 72.90 118.85 58.05 112.28 43.00 106.00
C 43.38 111.72 40.26 122.22 38.00 127.00
C 38.00 127.00 38.00 127.50 38.00 128.00
C 38.00 130.00 38.04 132.00 38.00 134.00
C 37.95 136.13 37.16 138.57 37.00 140.00
C 37.00 141.67 37.00 143.33 37.00 145.00
C 37.00 148.10 36.23 151.64 36.00 154.00
C 36.00 157.33 36.00 160.67 36.00 164.00
C 36.00 164.00 35.99 164.50 36.00 165.00
C 38.44 169.66 39.78 173.99 45.23 176.77 C 50.68 179.55 58.27 176.61 64.00 177.00
C 64.00 177.00 64.51 177.08 65.00 177.00
C 70.94 172.23 74.58 174.03 79.75 166.75 C 84.93 159.47 86.83 168.72 90.00 174.00
C 92.10 177.40 92.23 176.18 92.00 180.00
C 92.27 182.45 91.43 184.25 91.00 186.00
C 90.99 187.58 90.26 188.03 90.00 189.00
C 90.03 189.50 90.03 190.50 90.00 191.00
C 89.85 193.32 90.11 195.67 90.00 198.00
C 91.99 197.55 96.23 199.36 96.00 196.00
C 98.67 193.22 105.28 195.71 108.00 196.00
C 109.66 196.00 111.34 195.96 113.00 196.00
C 115.91 196.08 117.97 197.78 119.00 198.00
C 122.03 198.64 125.90 198.00 129.00 198.00
C 134.17 198.00 145.10 196.12 149.00 199.00
C 149.50 199.00 150.00 199.00 150.00 199.00
C 155.74 198.46 159.26 191.67 165.00 191.00
C 157.58 173.92 153.91 153.72 143.00 139.00
C 151.56 143.13 152.37 155.07 156.31 163.69 C 160.25 172.31 163.69 182.73 166.00 192.00
C 157.90 195.20 151.04 201.67 143.00 205.00
C 143.86 212.54 149.99 219.05 152.92 226.08 C 155.86 233.10 160.50 240.16 164.00 247.00
C 165.03 249.02 165.99 250.97 167.00 253.00
C 183.31 243.94 192.58 236.00 208.25 224.25 C 223.91 212.49 211.73 189.26 205.00 175.00
C 200.70 166.31 194.77 157.45 190.23 148.77 C 185.69 140.09 177.16 133.44 173.75 124.25 C 170.33 115.07 157.68 110.12 154.00 102.00
C 148.50 98.46 143.37 93.46 136.00 95.00
C 136.16 96.31 135.79 97.70 136.00 99.00
C 133.29 105.05 132.91 111.36 125.00 114.00 C 117.09 116.64 114.82 103.80 115.00 98.00
C 107.65 100.21 99.90 106.19 98.00 114.00
C 80.26 108.66 63.81 99.08 46.00 94.00
C 45.86 97.47 45.01 100.80 44.00 104.00
M 98.00 117.00 
C 90.56 133.87 79.48 154.22 68.00 169.00
C 77.43 151.60 87.20 133.46 98.00 117.00
M 119.00 175.00 
C 118.58 178.53 110.77 176.83 108.00 177.00 C 105.23 177.17 98.22 177.69 96.00 176.00
C 102.42 173.70 110.83 175.65 118.00 175.00
C 118.25 174.74 118.00 174.00 118.00 174.00
C 115.09 173.12 111.90 173.08 109.00 172.00
C 117.41 170.85 127.12 176.34 136.00 178.00
C 130.86 180.26 124.75 175.00 119.00 175.00
M 175.00 242.00 
C 167.33 229.80 159.68 216.29 154.00 203.00
C 161.96 213.87 170.99 229.21 175.00 242.00 Z"/>
</g>
<g fill="#3F1D18" fill-opacity="1.00" stroke="None">
<path d="
M 154.00 102.00 
C 157.68 110.12 170.33 115.07 173.75 124.25 C 177.16 133.44 185.69 140.09 190.23 148.77 C 194.77 157.45 200.70 166.31 205.00 175.00
C 204.92 174.51 205.13 173.46 205.00 173.00
C 204.44 170.96 202.97 168.89 202.00 167.00
C 200.30 163.67 198.88 160.24 197.00 157.00
C 196.71 156.49 196.29 155.51 196.00 155.00
C 188.39 141.62 178.33 127.54 169.00 115.00
C 166.11 111.68 162.10 108.10 159.00 105.00
C 157.65 103.85 155.71 101.71 154.00 101.00
C 154.00 101.00 153.81 101.59 154.00 102.00 Z"/>
</g>
<g fill="#F8DFDF" fill-opacity="1.00" stroke="None">
<path d="
M 42.00 106.00 
C 42.04 105.87 43.00 106.00 43.00 106.00
C 58.05 112.28 72.90 118.85 88.00 125.00
C 76.77 114.43 57.56 112.55 44.00 104.00
C 44.00 104.00 43.50 103.95 43.00 104.00
C 41.79 104.11 42.17 105.26 42.00 106.00 Z"/>
</g>
<g fill="#706A6A" fill-opacity="1.00" stroke="None">
<path d="
M 169.00 115.00 
C 166.24 111.29 162.54 108.03 159.00 105.00
C 162.10 108.10 166.11 111.68 169.00 115.00 Z"/>
</g>
<g fill="#3E211F" fill-opacity="1.00" stroke="None">
<path d="
M 38.00 127.00 
C 40.26 122.22 43.38 111.72 43.00 106.00
C 43.00 106.00 42.04 105.87 42.00 106.00
C 40.52 112.46 37.27 120.23 38.00 127.00 Z"/>
</g>
<g fill="#FBDFDE" fill-opacity="1.00" stroke="None">
<path d="
M 98.00 117.00 
C 87.20 133.46 77.43 151.60 68.00 169.00
C 79.48 154.22 90.56 133.87 98.00 117.00 Z"/>
</g>
<g fill="#FDC601" fill-opacity="0.45" stroke="None">
<path d="
M 223.00 126.00 
L 223.00 118.00
C 221.28 119.57 221.50 124.36 223.00 126.00 Z"/>
</g>
<g fill="#FDC601" fill-opacity="0.48" stroke="None">
<path d="
M 0.00 125.00 
C 1.69 124.04 1.43 120.03 0.00 119.00
L 0.00 125.00 Z"/>
</g>
<g fill="#000000" fill-opacity="0.01" stroke="None">
<path d="
M 0.00 277.00 
L 113.00 277.00
C 113.00 276.50 113.00 276.00 113.00 276.00
C 109.65 273.99 106.95 274.32 105.00 271.00
C 103.72 268.83 105.26 267.62 103.00 266.00
C 102.56 265.94 100.95 265.13 100.00 265.00
C 98.89 264.85 95.67 263.55 95.00 261.00
C 94.32 258.42 97.08 253.93 96.00 252.00
C 94.40 252.23 94.91 251.24 94.00 251.00
C 87.98 249.40 87.58 250.26 88.00 244.00
C 88.09 242.61 88.37 240.34 88.00 239.00
C 87.33 236.57 82.86 232.80 86.31 229.31 C 89.75 225.82 88.56 224.06 92.00 221.00
C 80.82 224.15 66.56 213.24 56.70 209.30 C 46.83 205.37 38.91 196.91 30.75 189.25 C 22.60 181.58 16.61 171.68 11.31 161.69 C 6.00 151.71 2.29 137.85 0.00 127.00
L 0.00 277.00 Z"/>
</g>
<g fill="#000000" fill-opacity="0.04" stroke="None">
<path d="
M 205.00 173.00 
C 205.13 173.46 204.92 174.51 205.00 175.00
C 211.73 189.26 223.91 212.49 208.25 224.25 C 192.58 236.00 183.31 243.94 167.00 253.00
C 165.99 250.97 165.03 249.02 164.00 247.00
C 163.88 246.78 163.00 247.00 163.00 247.00
C 165.10 252.70 150.46 257.99 146.25 263.25 C 142.05 268.51 129.74 273.86 123.00 275.00
C 122.48 275.23 121.27 276.34 121.00 277.00
L 223.00 277.00
L 223.00 127.00
C 221.54 143.64 212.20 158.31 205.00 173.00 Z"/>
</g>
<g fill="#291E1E" fill-opacity="1.00" stroke="None">
<path d="
M 37.00 134.00 
C 37.27 133.75 38.00 134.00 38.00 134.00
C 38.04 132.00 38.00 130.00 38.00 128.00
C 36.61 129.63 36.96 131.69 37.00 134.00 Z"/>
</g>
<g fill="#620B0A" fill-opacity="1.00" stroke="None">
<path d="
M 37.00 137.00 
C 37.00 138.00 37.00 139.00 37.00 140.00
C 37.16 138.57 37.95 136.13 38.00 134.00
C 38.00 134.00 37.27 133.75 37.00 134.00
C 37.02 135.00 37.00 136.00 37.00 137.00 Z"/>
</g>
<g fill="#302626" fill-opacity="1.00" stroke="None">
<path d="
M 36.00 145.00 
C 36.05 144.85 37.00 145.00 37.00 145.00
C 37.00 143.33 37.00 141.67 37.00 140.00
C 37.00 139.00 37.00 138.00 37.00 137.00
C 36.49 139.32 36.00 142.01 36.00 145.00 Z"/>
</g>
<g fill="#EBACA7" fill-opacity="1.00" stroke="None">
<path d="
M 150.00 199.00 
C 149.75 199.09 149.28 199.77 149.00 200.00
C 147.18 201.52 142.88 202.53 142.00 205.00
C 142.00 205.04 143.00 205.00 143.00 205.00
C 151.04 201.67 157.90 195.20 166.00 192.00
C 163.69 182.73 160.25 172.31 156.31 163.69 C 152.37 155.07 151.56 143.13 143.00 139.00
C 153.91 153.72 157.58 173.92 165.00 191.00
C 159.26 191.67 155.74 198.46 150.00 199.00 Z"/>
</g>
<g fill="#6B0B09" fill-opacity="1.00" stroke="None">
<path d="
M 36.00 150.00 
C 36.00 151.33 36.00 152.67 36.00 154.00
C 36.23 151.64 37.00 148.10 37.00 145.00
C 37.00 145.00 36.05 144.85 36.00 145.00
C 36.00 146.67 36.00 148.33 36.00 150.00 Z"/>
</g>
<g fill="#221A1A" fill-opacity="1.00" stroke="None">
<path d="
M 36.00 164.00 
C 36.00 160.67 36.00 157.33 36.00 154.00
C 36.00 152.67 36.00 151.33 36.00 150.00
C 35.62 153.57 33.35 160.42 36.00 164.00 Z"/>
</g>
<g fill="#362221" fill-opacity="1.00" stroke="None">
<path d="
M 65.00 177.00 
C 73.60 176.46 77.98 167.42 85.00 164.00
C 85.82 169.27 88.88 173.10 92.00 177.00
C 91.78 176.01 90.51 174.85 90.00 174.00
C 86.83 168.72 84.93 159.47 79.75 166.75 C 74.58 174.03 70.94 172.23 65.00 177.00 Z"/>
</g>
<g fill="#2F1C1B" fill-opacity="1.00" stroke="None">
<path d="
M 64.00 177.00 
C 58.27 176.61 50.68 179.55 45.23 176.77 C 39.78 173.99 38.44 169.66 36.00 165.00
C 36.28 179.12 54.15 181.30 64.00 177.00 Z"/>
</g>
<g fill="#490000" fill-opacity="1.00" stroke="None">
<path d="
M 118.00 174.00 
C 118.35 174.11 118.76 174.93 119.00 175.00
C 124.75 175.00 130.86 180.26 136.00 178.00
C 127.12 176.34 117.41 170.85 109.00 172.00
C 111.90 173.08 115.09 173.12 118.00 174.00 Z"/>
</g>
<g fill="#800303" fill-opacity="1.00" stroke="None">
<path d="
M 92.00 177.00 
C 92.11 177.48 92.00 178.50 92.00 179.00
C 92.00 179.50 92.00 180.00 92.00 180.00
C 92.23 176.18 92.10 177.40 90.00 174.00
C 90.51 174.85 91.78 176.01 92.00 177.00 Z"/>
</g>
<g fill="#950000" fill-opacity="1.00" stroke="None">
<path d="
M 118.00 175.00 
C 113.75 179.39 101.55 173.79 96.00 176.00
C 98.22 177.69 105.23 177.17 108.00 177.00 C 110.77 176.83 118.58 178.53 119.00 175.00
C 118.76 174.93 118.35 174.11 118.00 174.00
C 118.00 174.00 118.25 174.74 118.00 175.00 Z"/>
</g>
<g fill="#3F0000" fill-opacity="1.00" stroke="None">
<path d="
M 96.00 176.00 
C 101.55 173.79 113.75 179.39 118.00 175.00
C 110.83 175.65 102.42 173.70 96.00 176.00 Z"/>
</g>
<g fill="#461714" fill-opacity="1.00" stroke="None">
<path d="
M 91.00 184.00 
C 91.03 184.50 91.00 185.50 91.00 186.00
C 91.43 184.25 92.27 182.45 92.00 180.00
C 92.00 180.00 92.00 179.50 92.00 179.00
C 91.42 180.61 90.89 181.76 91.00 184.00 Z"/>
</g>
<g fill="#332929" fill-opacity="1.00" stroke="None">
<path d="
M 90.00 189.00 
C 90.26 188.03 90.99 187.58 91.00 186.00
C 91.00 185.50 91.03 184.50 91.00 184.00
C 90.76 185.36 89.89 186.94 90.00 189.00 Z"/>
</g>
<g fill="#1B1814" fill-opacity="1.00" stroke="None">
<path d="
M 88.00 197.00 
C 87.35 198.71 85.38 200.96 85.00 203.00
C 85.05 203.50 84.93 204.51 85.00 205.00
C 85.23 206.62 86.62 207.71 88.00 208.00
C 88.50 208.02 89.50 208.03 90.00 208.00
C 92.26 207.86 94.42 207.65 96.00 209.00
C 96.00 209.00 96.50 209.05 97.00 209.00
C 97.35 208.97 97.77 208.05 98.00 208.00
C 97.02 204.72 97.00 200.90 97.00 197.00
C 97.00 196.50 97.00 196.00 97.00 196.00
C 96.50 196.00 96.00 196.00 96.00 196.00
C 96.23 199.36 91.99 197.55 90.00 198.00
C 90.11 195.67 89.85 193.32 90.00 191.00
C 89.52 192.59 88.61 195.39 88.00 197.00 Z"/>
</g>
<g fill="#5D0600" fill-opacity="1.00" stroke="None">
<path d="
M 96.00 196.00 
C 96.00 196.00 96.50 196.00 97.00 196.00
C 99.67 196.00 102.33 196.00 105.00 196.00
C 106.00 196.00 107.00 196.00 108.00 196.00
C 105.28 195.71 98.67 193.22 96.00 196.00 Z"/>
</g>
<g fill="#957700" fill-opacity="1.00" stroke="None">
<path d="
M 97.00 197.00 
C 99.62 197.24 102.37 197.00 105.00 197.00
C 104.96 197.00 105.00 196.00 105.00 196.00
C 102.33 196.00 99.67 196.00 97.00 196.00
C 97.00 196.00 97.00 196.50 97.00 197.00 Z"/>
</g>
<g fill="#654A00" fill-opacity="1.00" stroke="None">
<path d="
M 105.00 197.00 
C 107.63 197.00 110.38 197.24 113.00 197.00
C 113.09 196.98 113.00 196.00 113.00 196.00
C 111.34 195.96 109.66 196.00 108.00 196.00
C 107.00 196.00 106.00 196.00 105.00 196.00
C 105.00 196.00 104.96 197.00 105.00 197.00 Z"/>
</g>
<g fill="#2D2104" fill-opacity="1.00" stroke="None">
<path d="
M 113.00 197.00 
C 114.62 196.71 116.37 197.22 118.00 197.00
C 118.00 200.67 118.00 204.33 118.00 208.00
C 118.00 208.50 118.00 209.00 118.00 209.00
C 118.50 209.00 119.00 209.00 119.00 209.00
C 119.03 208.65 119.88 208.26 120.00 208.00
C 120.19 207.59 120.00 207.00 120.00 207.00
C 118.07 204.39 120.34 200.78 119.00 198.00
C 117.97 197.78 115.91 196.08 113.00 196.00
C 113.00 196.00 113.09 196.98 113.00 197.00 Z"/>
</g>
<g fill="#7D7D7D" fill-opacity="1.00" stroke="None">
<path d="
M 85.00 203.00 
C 85.38 200.96 87.35 198.71 88.00 197.00
C 86.68 199.39 84.55 198.31 85.00 203.00 Z"/>
</g>
<g fill="#EABB00" fill-opacity="1.00" stroke="None">
<path d="
M 98.00 208.00 
C 103.61 206.75 112.26 207.48 118.00 208.00
C 118.00 204.33 118.00 200.67 118.00 197.00
C 116.37 197.22 114.62 196.71 113.00 197.00
C 110.38 197.24 107.63 197.00 105.00 197.00
C 102.37 197.00 99.62 197.24 97.00 197.00
C 97.00 200.90 97.02 204.72 98.00 208.00
M 107.00 206.00 
C 102.24 205.90 98.41 206.35 100.00 200.00
C 105.00 200.00 110.00 200.00 115.00 200.00
C 116.54 201.06 116.83 205.43 114.74 206.74 C 112.66 208.05 108.49 206.18 107.00 206.00 Z"/>
</g>
<g fill="#181614" fill-opacity="1.00" stroke="None">
<path d="
M 120.00 207.00 
C 122.98 206.73 126.02 207.20 129.00 207.00
C 136.80 206.47 141.71 201.35 149.00 200.00
C 149.28 199.77 149.75 199.09 150.00 199.00
C 150.00 199.00 149.50 199.00 149.00 199.00
C 142.29 199.00 134.95 198.58 129.00 198.00
C 125.90 198.00 122.03 198.64 119.00 198.00
C 120.34 200.78 118.07 204.39 120.00 207.00 Z"/>
</g>
<g fill="#4D0000" fill-opacity="1.00" stroke="None">
<path d="
M 149.00 199.00 
C 145.10 196.12 134.17 198.00 129.00 198.00
C 134.95 198.58 142.29 199.00 149.00 199.00 Z"/>
</g>
<g fill="#161511" fill-opacity="1.00" stroke="None">
<path d="
M 107.00 206.00 
C 109.67 206.05 112.33 205.96 115.00 206.00
C 115.00 204.00 115.00 202.00 115.00 200.00
C 110.00 200.00 105.00 200.00 100.00 200.00
C 98.41 206.35 102.24 205.90 107.00 206.00 Z"/>
</g>
<g fill="#8C7000" fill-opacity="1.00" stroke="None">
<path d="
M 107.00 206.00 
C 108.49 206.18 112.66 208.05 114.74 206.74 C 116.83 205.43 116.54 201.06 115.00 200.00
C 115.00 202.00 115.00 204.00 115.00 206.00
C 112.33 205.96 109.67 206.05 107.00 206.00 Z"/>
</g>
<g fill="#E1C255" fill-opacity="1.00" stroke="None">
<path d="
M 129.00 207.00 
C 126.54 207.44 122.96 207.57 120.00 208.00
C 119.88 208.26 119.03 208.65 119.00 209.00
C 118.95 209.50 119.00 210.00 119.00 210.00
C 122.91 210.27 126.13 209.13 130.00 209.00
C 131.13 208.75 132.26 207.95 134.00 208.00
C 136.01 207.50 139.90 206.09 142.00 205.00
C 142.88 202.53 147.18 201.52 149.00 200.00
C 141.71 201.35 136.80 206.47 129.00 207.00 Z"/>
</g>
<g fill="#FBE4E3" fill-opacity="1.00" stroke="None">
<path d="
M 175.00 242.00 
C 170.99 229.21 161.96 213.87 154.00 203.00
C 159.68 216.29 167.33 229.80 175.00 242.00 Z"/>
</g>
<g fill="#FEFCF5" fill-opacity="1.00" stroke="None">
<path d="
M 134.00 208.00 
C 134.50 208.02 135.50 208.00 136.00 208.00
C 136.50 208.00 137.51 207.94 138.00 208.00
C 140.71 208.32 142.22 208.01 142.00 205.00
C 139.90 206.09 136.01 207.50 134.00 208.00 Z"/>
</g>
<g fill="#2F1411" fill-opacity="1.00" stroke="None">
<path d="
M 138.00 208.00 
C 138.23 208.34 138.00 209.00 138.00 209.00
C 147.07 208.22 147.05 220.68 151.77 226.23 C 156.50 231.78 157.60 242.17 163.00 247.00
C 163.00 247.00 163.88 246.78 164.00 247.00
C 160.50 240.16 155.86 233.10 152.92 226.08 C 149.99 219.05 143.86 212.54 143.00 205.00
C 143.00 205.00 142.00 205.04 142.00 205.00
C 142.22 208.01 140.71 208.32 138.00 208.00 Z"/>
</g>
<g fill="#8F7A32" fill-opacity="1.00" stroke="None">
<path d="
M 120.00 208.00 
C 122.96 207.57 126.54 207.44 129.00 207.00
C 126.02 207.20 122.98 206.73 120.00 207.00
C 120.00 207.00 120.19 207.59 120.00 208.00 Z"/>
</g>
<g fill="#FBD859" fill-opacity="1.00" stroke="None">
<path d="
M 96.00 209.00 
C 94.42 207.65 92.26 207.86 90.00 208.00
C 91.82 208.73 93.52 209.27 96.00 209.00 Z"/>
</g>
<g fill="#866D0D" fill-opacity="1.00" stroke="None">
<path d="
M 97.00 209.00 
C 98.94 210.44 101.38 209.96 104.00 210.00
C 106.00 210.03 108.00 210.00 110.00 210.00
C 112.10 209.80 115.23 209.00 118.00 209.00
C 118.00 209.00 118.00 208.50 118.00 208.00
C 112.26 207.48 103.61 206.75 98.00 208.00
C 97.77 208.05 97.35 208.97 97.00 209.00 Z"/>
</g>
<g fill="#C2C2C0" fill-opacity="1.00" stroke="None">
<path d="
M 130.00 209.00 
C 131.51 208.95 133.55 209.40 135.00 209.00
C 135.12 208.74 135.74 208.11 136.00 208.00
C 135.50 208.00 134.50 208.02 134.00 208.00
C 132.26 207.95 131.13 208.75 130.00 209.00 Z"/>
</g>
<g fill="#7E5951" fill-opacity="1.00" stroke="None">
<path d="
M 135.00 209.00 
C 134.81 209.41 135.00 210.00 135.00 210.00
C 135.98 209.92 137.76 210.46 138.00 209.00
C 138.00 209.00 138.23 208.34 138.00 208.00
C 137.51 207.94 136.50 208.00 136.00 208.00
C 135.74 208.11 135.12 208.74 135.00 209.00 Z"/>
</g>
<g fill="#5D4B02" fill-opacity="1.00" stroke="None">
<path d="
M 110.00 210.00 
C 111.33 210.00 112.67 210.00 114.00 210.00
C 115.00 210.00 116.00 210.00 117.00 210.00
C 117.50 210.00 118.50 209.97 119.00 210.00
C 119.00 210.00 118.95 209.50 119.00 209.00
C 119.00 209.00 118.50 209.00 118.00 209.00
C 115.23 209.00 112.10 209.80 110.00 210.00 Z"/>
</g>
<g fill="#3B2F2C" fill-opacity="1.00" stroke="None">
<path d="
M 119.00 210.00 
C 118.50 209.97 117.50 210.00 117.00 210.00
C 116.77 210.34 117.00 211.00 117.00 211.00
C 122.75 209.74 129.09 210.51 135.00 210.00
C 135.00 210.00 134.81 209.41 135.00 209.00
C 133.55 209.40 131.51 208.95 130.00 209.00
C 126.13 209.13 122.91 210.27 119.00 210.00 Z"/>
</g>
<g fill="#FC927E" fill-opacity="1.00" stroke="None">
<path d="
M 135.00 210.00 
C 129.09 210.51 122.75 209.74 117.00 211.00
C 116.79 212.29 114.91 211.92 114.00 212.00
C 105.36 212.77 98.44 215.27 92.00 221.00
C 88.56 224.06 89.75 225.82 86.31 229.31 C 82.86 232.80 87.33 236.57 88.00 239.00
C 89.07 235.77 96.13 233.64 98.74 231.74 C 101.36 229.85 108.42 226.35 112.00 227.00
C 112.75 226.89 114.58 225.10 116.00 226.00
C 115.56 227.29 114.42 228.21 113.00 228.00
C 104.29 231.65 90.98 233.41 88.00 244.00
C 87.58 250.26 87.98 249.40 94.00 251.00
C 94.74 248.51 104.44 245.20 107.23 243.23 C 110.02 241.26 120.28 239.52 123.00 240.00
C 113.79 242.41 103.63 245.20 96.00 252.00
C 97.08 253.93 94.32 258.42 95.00 261.00
C 95.29 261.76 99.44 264.78 100.00 265.00
C 100.95 265.13 102.56 265.94 103.00 266.00
C 109.66 266.90 115.82 253.62 124.00 257.00
C 117.57 260.20 106.55 262.16 105.00 271.00
C 106.95 274.32 109.65 273.99 113.00 276.00
C 116.55 275.68 119.64 275.57 123.00 275.00
C 129.74 273.86 142.05 268.51 146.25 263.25 C 150.46 257.99 165.10 252.70 163.00 247.00
C 157.60 242.17 156.50 231.78 151.77 226.23 C 147.05 220.68 147.07 208.22 138.00 209.00
C 137.76 210.46 135.98 209.92 135.00 210.00 Z"/>
</g>
<g fill="#E6DFC3" fill-opacity="1.00" stroke="None">
<path d="
M 105.00 212.00 
C 107.98 211.23 110.73 210.93 114.00 211.00
C 114.00 210.50 114.00 210.00 114.00 210.00
C 112.67 210.00 111.33 210.00 110.00 210.00
C 108.00 210.00 106.00 210.03 104.00 210.00
C 104.23 210.09 104.61 211.87 105.00 212.00 Z"/>
</g>
<g fill="#80655C" fill-opacity="1.00" stroke="None">
<path d="
M 114.00 211.00 
C 114.00 211.50 114.00 212.00 114.00 212.00
C 114.91 211.92 116.79 212.29 117.00 211.00
C 117.00 211.00 116.77 210.34 117.00 210.00
C 116.00 210.00 115.00 210.00 114.00 210.00
C 114.00 210.00 114.00 210.50 114.00 211.00 Z"/>
</g>
<g fill="#44322C" fill-opacity="1.00" stroke="None">
<path d="
M 105.00 212.00 
C 101.37 212.94 99.02 214.52 96.00 217.00
C 95.06 217.77 93.10 220.69 92.00 221.00
C 98.44 215.27 105.36 212.77 114.00 212.00
C 114.00 212.00 114.00 211.50 114.00 211.00
C 110.73 210.93 107.98 211.23 105.00 212.00 Z"/>
</g>
<g fill="#915449" fill-opacity="1.00" stroke="None">
<path d="
M 112.00 227.00 
C 112.35 227.06 112.85 228.01 113.00 228.00
C 114.42 228.21 115.56 227.29 116.00 226.00
C 114.58 225.10 112.75 226.89 112.00 227.00 Z"/>
</g>
<g fill="#523029" fill-opacity="1.00" stroke="None">
<path d="
M 88.00 239.00 
C 88.37 240.34 88.09 242.61 88.00 244.00
C 90.98 233.41 104.29 231.65 113.00 228.00
C 112.85 228.01 112.35 227.06 112.00 227.00
C 108.42 226.35 101.36 229.85 98.74 231.74 C 96.13 233.64 89.07 235.77 88.00 239.00 Z"/>
</g>
<g fill="#55312B" fill-opacity="1.00" stroke="None">
<path d="
M 94.00 251.00 
C 94.91 251.24 94.40 252.23 96.00 252.00
C 103.63 245.20 113.79 242.41 123.00 240.00
C 120.28 239.52 110.02 241.26 107.23 243.23 C 104.44 245.20 94.74 248.51 94.00 251.00 Z"/>
</g>
<g fill="#4C2C26" fill-opacity="0.99" stroke="None">
<path d="
M 103.00 266.00 
C 105.26 267.62 103.72 268.83 105.00 271.00
C 106.55 262.16 117.57 260.20 124.00 257.00
C 115.82 253.62 109.66 266.90 103.00 266.00 Z"/>
</g>
<g fill="#1C100E" fill-opacity="0.86" stroke="None">
<path d="
M 100.00 265.00 
C 99.44 264.78 95.29 261.76 95.00 261.00
C 95.67 263.55 98.89 264.85 100.00 265.00 Z"/>
</g>
<g fill="#1F110F" fill-opacity="0.93" stroke="None">
<path d="
M 113.00 276.00 
C 113.00 276.00 113.00 276.50 113.00 277.00
L 121.00 277.00
C 121.27 276.34 122.48 275.23 123.00 275.00
C 119.64 275.57 116.55 275.68 113.00 276.00 Z"/>
</g>
</svg>