<svg width="34" height="34" viewBox="0 0 34 34" fill="none" xmlns="http://www.w3.org/2000/svg">
<g opacity="0.7">
<path d="M18.6998 5.1001C18.2489 5.1001 17.8165 5.2792 17.4977 5.59802C17.1789 5.91683 16.9998 6.34923 16.9998 6.8001C16.9998 7.25097 17.1789 7.68337 17.4977 8.00218C17.8165 8.32099 18.2489 8.5001 18.6998 8.5001H23.096L12.3979 19.1982C12.2355 19.355 12.106 19.5426 12.0169 19.75C11.9278 19.9574 11.8809 20.1805 11.879 20.4062C11.877 20.6319 11.92 20.8558 12.0055 21.0647C12.091 21.2736 12.2172 21.4634 12.3768 21.6231C12.5364 21.7827 12.7263 21.9089 12.9352 21.9944C13.1441 22.0799 13.368 22.1229 13.5937 22.1209C13.8194 22.119 14.0425 22.0721 14.2499 21.983C14.4573 21.8939 14.6449 21.7644 14.8017 21.602L25.4998 10.9039V15.3001C25.4998 15.751 25.6789 16.1834 25.9977 16.5022C26.3165 16.821 26.7489 17.0001 27.1998 17.0001C27.6507 17.0001 28.0831 16.821 28.4019 16.5022C28.7207 16.1834 28.8998 15.751 28.8998 15.3001V6.8001C28.8998 6.34923 28.7207 5.91683 28.4019 5.59802C28.0831 5.2792 27.6507 5.1001 27.1998 5.1001H18.6998Z" fill="black"/>
<path opacity="0.7" d="M8.49961 8.5C7.59787 8.5 6.73307 8.85821 6.09545 9.49584C5.45782 10.1335 5.09961 10.9983 5.09961 11.9V25.5C5.09961 26.4017 5.45782 27.2665 6.09545 27.9042C6.73307 28.5418 7.59787 28.9 8.49961 28.9H22.0996C23.0013 28.9 23.8661 28.5418 24.5038 27.9042C25.1414 27.2665 25.4996 26.4017 25.4996 25.5V20.4C25.4996 19.9491 25.3205 19.5167 25.0017 19.1979C24.6829 18.8791 24.2505 18.7 23.7996 18.7C23.3487 18.7 22.9163 18.8791 22.5975 19.1979C22.2787 19.5167 22.0996 19.9491 22.0996 20.4V25.5H8.49961V11.9H13.5996C14.0505 11.9 14.4829 11.7209 14.8017 11.4021C15.1205 11.0833 15.2996 10.6509 15.2996 10.2C15.2996 9.74913 15.1205 9.31673 14.8017 8.99792C14.4829 8.67911 14.0505 8.5 13.5996 8.5H8.49961Z" fill="black"/>
</g>
</svg>
