<svg width="20" height="20" viewBox="0 0 20 20" fill="none" xmlns="http://www.w3.org/2000/svg">
<g clip-path="url(#clip0_2224_7699)">
<path d="M19.3272 9.83489C19.3272 9.05247 19.2623 8.48151 19.1216 7.8894H9.97772V11.4209H15.345C15.2368 12.2985 14.6525 13.6202 13.3539 14.5083L13.3357 14.6265L16.2269 16.815L16.4272 16.8345C18.2667 15.1745 19.3272 12.732 19.3272 9.83489Z" fill="#4285F4"/>
<path d="M9.97768 19.1394C12.6072 19.1394 14.8147 18.2934 16.4271 16.8344L13.3539 14.5082C12.5315 15.0686 11.4277 15.4598 9.97768 15.4598C7.40225 15.4598 5.21638 13.7998 4.43718 11.5054L4.32297 11.5148L1.31672 13.7881L1.2774 13.8949C2.87893 17.0035 6.16858 19.1394 9.97768 19.1394Z" fill="#34A853"/>
<path d="M4.43724 11.5055C4.23164 10.9134 4.11265 10.2789 4.11265 9.6234C4.11265 8.96781 4.23164 8.33343 4.42642 7.74133L4.42097 7.61522L1.37705 5.30542L1.27746 5.35171C0.617394 6.64168 0.238647 8.09026 0.238647 9.6234C0.238647 11.1565 0.617394 12.605 1.27746 13.895L4.43724 11.5055Z" fill="#FBBC05"/>
<path d="M9.97768 3.78694C11.8064 3.78694 13.04 4.55879 13.7434 5.20382L16.492 2.5816C14.804 1.04846 12.6072 0.107422 9.97768 0.107422C6.16858 0.107422 2.87893 2.24323 1.2774 5.35179L4.42637 7.74141C5.21638 5.44698 7.40225 3.78694 9.97768 3.78694Z" fill="#EB4335"/>
</g>
<defs>
<clipPath id="clip0_2224_7699">
<rect width="19.0977" height="19.0977" fill="white" transform="translate(0.238586 0.107422)"/>
</clipPath>
</defs>
</svg>
