<svg width="359" height="156" viewBox="0 0 359 156" fill="none" xmlns="http://www.w3.org/2000/svg">
<mask id="mask0_1254_4884" style="mask-type:alpha" maskUnits="userSpaceOnUse" x="0" y="0" width="359" height="156">
<rect width="359" height="156" rx="20" fill="#1B6909"/>
</mask>
<g mask="url(#mask0_1254_4884)">
<mask id="mask1_1254_4884" style="mask-type:alpha" maskUnits="userSpaceOnUse" x="0" y="0" width="359" height="156">
<rect width="359" height="156" rx="20" fill="#1B6909"/>
</mask>
<g mask="url(#mask1_1254_4884)">
<rect width="359" height="156" rx="20" fill="#FFE4DB" fill-opacity="0.74"/>
<path opacity="0.1" d="M446.901 184.537C446.901 210.686 431.336 234.531 405.824 251.903C380.32 269.271 345.002 280.061 305.918 280.061C266.834 280.061 231.516 269.271 206.012 251.903C180.5 234.531 164.936 210.686 164.936 184.537C164.936 158.387 180.5 134.542 206.012 117.17C231.516 99.8025 266.834 89.0122 305.918 89.0122C345.002 89.0122 380.32 99.8025 405.824 117.17C431.336 134.542 446.901 158.387 446.901 184.537Z" stroke="#CE2600" stroke-width="3"/>
<path opacity="0.1" d="M526.525 20.9268C526.525 47.0766 510.96 70.921 485.448 88.2936C459.944 105.661 424.626 116.451 385.542 116.451C346.458 116.451 311.14 105.661 285.636 88.2936C260.124 70.921 244.56 47.0766 244.56 20.9268C244.56 -5.22295 260.124 -29.0673 285.636 -46.4399C311.14 -63.8073 346.458 -74.5976 385.542 -74.5976C424.626 -74.5976 459.944 -63.8073 485.448 -46.4399C510.96 -29.0673 526.525 -5.22295 526.525 20.9268Z" stroke="#CE2600" stroke-width="3"/>
</g>
</g>
</svg>
